<?xml version="1.0" encoding="UTF-8" standalone="no"?>
<!DOCTYPE svg PUBLIC "-//W3C//DTD SVG 1.1//EN" "http://www.w3.org/Graphics/SVG/1.1/DTD/svg11.dtd">
<svg xmlns="http://www.w3.org/2000/svg" xmlns:xlink="http://www.w3.org/1999/xlink" version="1.1" width="500" height="500" viewBox="0 0 500 500" xml:space="preserve">
<desc>Created with Fabric.js 3.6.3</desc>
<defs>
</defs>
<g transform="matrix(1.2588822558006165 0.033375986158737866 -0.03234100296731055 1.2198445486136926 127.47838947138175 205.9215266939334)">
<path style="stroke: none; stroke-width: 0; stroke-dasharray: none; stroke-linecap: butt; stroke-dashoffset: 0; stroke-linejoin: miter; stroke-miterlimit: 4; fill: rgb(255,152,0); fill-rule: evenodd; opacity: 1;" transform=" translate(-50.00156999999999, -50.000730000000004)" d="m 66.645 66.645 c -9.1914 9.1914 -24.098 9.1914 -33.289 0 c -9.1914 -9.1914 -9.1914 -24.098 0 -33.289 c 9.1914 -9.1914 24.098 -9.1914 33.289 0 c 9.1914 9.1914 9.1914 24.098 0 33.289 z m -16.645 4.168 c 11.492 0 20.812 -9.3164 20.812 -20.812 c 0 -11.492 -9.3164 -20.812 -20.812 -20.812 c -11.492 0 -20.812 9.3164 -20.812 20.812 c 0 11.492 9.3164 20.812 20.812 20.812 z m -34.434 -28.824 h -6.0352 c -0.34766 0 -0.69922 0.13281 -0.96484 0.39844 l -3.1562 3.1562 c -0.25 0.24609 -0.40625 0.58984 -0.40625 0.97266 v 6.9688 c 0 0.34766 0.13281 0.69922 0.39844 0.96484 l 3.1562 3.1562 c 0.24609 0.25 0.58984 0.40625 0.97266 0.40625 h 6.0352 c 0.87891 3.7891 2.375 7.3789 4.4219 10.664 l -4.2656 4.2656 c -0.25 0.24609 -0.40625 0.58984 -0.40625 0.97266 v 4.4766 c 0 0.34766 0.13281 0.69922 0.39844 0.96484 l 4.9219 4.9219 c 0.24609 0.25 0.58984 0.40625 0.97266 0.40625 h 4.4766 c 0.34766 0 0.69922 -0.13281 0.96484 -0.39844 l 4.2734 -4.2734 c 3.2852 2.0508 6.875 3.543 10.664 4.4219 v 6.0352 c 0 0.34766 0.13281 0.69922 0.39844 0.96484 l 3.1602 3.1562 c 0.24609 0.25 0.58984 0.40625 0.97266 0.40625 h 6.9688 c 0.34766 0 0.69922 -0.13281 0.96484 -0.39844 l 3.1562 -3.1562 c 0.25 -0.24609 0.40625 -0.58984 0.40625 -0.97266 v -6.0352 c 3.7891 -0.87891 7.3789 -2.375 10.664 -4.4219 l 4.2773 4.2695 c 0.24609 0.24609 0.58594 0.39844 0.96094 0.39844 h 4.3594 c 0.38672 0.03125 0.78516 -0.097657 1.082 -0.39453 l 4.9219 -4.9219 c 0.25 -0.24609 0.40625 -0.58984 0.40625 -0.97266 v -4.4766 c 0 -0.34766 -0.13281 -0.69922 -0.39844 -0.96484 l -4.2734 -4.2734 c 2.0508 -3.2852 3.543 -6.875 4.4219 -10.664 h 6.0352 c 0.34766 0 0.69922 -0.13281 0.96484 -0.39844 l 3.1562 -3.1562 c 0.25 -0.24609 0.40625 -0.58984 0.40625 -0.97266 v -6.9688 c 0 -0.34766 -0.13281 -0.69922 -0.39844 -0.96484 l -3.1562 -3.1562 c -0.24609 -0.25 -0.58984 -0.40625 -0.97266 -0.40625 h -6.0352 c -0.87891 -3.7891 -2.375 -7.3789 -4.4219 -10.664 l 4.2695 -4.2773 c 0.24609 -0.24609 0.39844 -0.58594 0.39844 -0.96094 v -4.3594 c 0.03125 -0.38672 -0.097656 -0.78516 -0.39453 -1.082 l -4.9219 -4.9219 c -0.24609 -0.25 -0.58984 -0.40625 -0.97266 -0.40625 h -4.4766 c -0.34766 0 -0.69922 0.13281 -0.96484 0.39844 l -4.2734 4.2734 c -3.2852 -2.0508 -6.875 -3.543 -10.664 -4.4219 v -6.0352 c 0 -0.34766 -0.13281 -0.69922 -0.39844 -0.96484 l -3.1562 -3.1562 c -0.24609 -0.25 -0.58984 -0.40625 -0.97266 -0.40625 h -6.9688 c -0.34766 0 -0.69922 0.13281 -0.96484 0.39844 l -3.1562 3.1562 c -0.25 0.24609 -0.40625 0.58984 -0.40625 0.97266 v 6.0352 c -3.7891 0.87891 -7.3789 2.375 -10.664 4.4219 l -4.2656 -4.2656 c -0.24609 -0.25 -0.58984 -0.40625 -0.97266 -0.40625 h -4.4766 c -0.34766 0 -0.69922 0.13281 -0.96484 0.39844 l -4.9219 4.9219 c -0.25 0.24609 -0.40625 0.58984 -0.40625 0.97266 v 4.4766 c 0 0.34766 0.13281 0.69922 0.39844 0.96484 l 4.2734 4.2734 c -2.0508 3.2852 -3.543 6.875 -4.4219 10.664 z m 7.2344 -10.008 c -1.1484 1.7305 -2.1406 3.5859 -2.9492 5.5391 c -0.79687 1.9219 -1.4141 3.9414 -1.8359 6.0352 c -0.097656 0.65625 -0.66406 1.1602 -1.3477 1.1602 h -6.5703 l -2.3672 2.3672 v 5.8398 l 2.3672 2.3672 h 6.5703 c 0.68359 0 1.25 0.50391 1.3477 1.1602 c 0.41797 2.0938 1.0391 4.1094 1.8359 6.0352 c 0.80859 1.9531 1.8008 3.8086 2.9492 5.5391 c 0.42578 0.53516 0.38672 1.3164 -0.10547 1.8086 l -4.6484 4.6484 v 3.3477 l 4.1289 4.1289 h 3.3477 l 4.6484 -4.6484 c 0.49219 -0.49219 1.2734 -0.53125 1.8086 -0.10547 c 1.7305 1.1484 3.5859 2.1406 5.5391 2.9492 c 1.9219 0.79688 3.9414 1.4141 6.0352 1.8359 c 0.65625 0.097657 1.1602 0.66406 1.1602 1.3477 v 6.5703 l 2.3672 2.3672 h 5.8398 l 2.3672 -2.3672 v -6.5703 c 0 -0.68359 0.50391 -1.25 1.1602 -1.3477 c 2.0938 -0.41797 4.1094 -1.0391 6.0352 -1.8359 c 1.957 -0.8125 3.8086 -1.8008 5.5391 -2.9492 c 0.53516 -0.42188 1.3125 -0.38672 1.8086 0.10547 l 4.6523 4.6523 h 3.3359 l 4.1328 -4.1328 v -3.3477 l -4.6484 -4.6484 c -0.49219 -0.49219 -0.53125 -1.2734 -0.10547 -1.8086 c 1.1484 -1.7305 2.1406 -3.5859 2.9492 -5.5391 c 0.79687 -1.9219 1.4141 -3.9414 1.8359 -6.0352 c 0.097656 -0.65625 0.66406 -1.1602 1.3477 -1.1602 h 6.5703 l 2.3672 -2.3672 v -5.8398 l -2.3672 -2.3672 h -6.5703 c -0.68359 0 -1.25 -0.50391 -1.3477 -1.1602 c -0.41797 -2.0938 -1.0352 -4.1094 -1.8359 -6.0352 c -0.8125 -1.957 -1.8008 -3.8086 -2.9492 -5.5391 c -0.42188 -0.53516 -0.38672 -1.3125 0.10547 -1.8086 l 4.6523 -4.6523 v -3.3359 s -4.1328 -4.1328 -4.1328 -4.1328 h -3.3477 l -4.6484 4.6484 c -0.49219 0.49219 -1.2734 0.53125 -1.8086 0.10547 c -1.7305 -1.1484 -3.5859 -2.1406 -5.5391 -2.9492 c -1.9219 -0.79688 -3.9414 -1.4141 -6.0352 -1.8359 c -0.65625 -0.097656 -1.1602 -0.66406 -1.1602 -1.3477 v -6.5703 l -2.3672 -2.3672 h -5.8398 l -2.3672 2.3672 v 6.5703 c 0 0.68359 -0.50391 1.25 -1.1602 1.3477 c -2.0938 0.41797 -4.1094 1.0352 -6.0352 1.8359 c -1.957 0.8125 -3.8086 1.8008 -5.5391 2.9492 c -0.53516 0.42187 -1.3125 0.38672 -1.8086 -0.10547 l -4.6484 -4.6484 h -3.3477 l -4.1289 4.1289 v 3.3477 l 4.6484 4.6484 c 0.49219 0.49219 0.53125 1.2734 0.10547 1.8086 z" stroke-linecap="round"/>
</g>
<g transform="matrix(1.2588822558006165 0.033375986158737866 -0.03234100296731055 1.2198445486136926 125.47838947138175 205.92997172399373)">
<path style="stroke: none; stroke-width: 0; stroke-dasharray: none; stroke-linecap: butt; stroke-dashoffset: 0; stroke-linejoin: miter; stroke-miterlimit: 4; fill: rgb(255,152,0); fill-rule: evenodd; opacity: 1;" transform=" translate(-50.00156999999999, -50.000730000000004)" d="m 66.645 66.645 c -9.1914 9.1914 -24.098 9.1914 -33.289 0 c -9.1914 -9.1914 -9.1914 -24.098 0 -33.289 c 9.1914 -9.1914 24.098 -9.1914 33.289 0 c 9.1914 9.1914 9.1914 24.098 0 33.289 z m -16.645 4.168 c 11.492 0 20.812 -9.3164 20.812 -20.812 c 0 -11.492 -9.3164 -20.812 -20.812 -20.812 c -11.492 0 -20.812 9.3164 -20.812 20.812 c 0 11.492 9.3164 20.812 20.812 20.812 z m -34.434 -28.824 h -6.0352 c -0.34766 0 -0.69922 0.13281 -0.96484 0.39844 l -3.1562 3.1562 c -0.25 0.24609 -0.40625 0.58984 -0.40625 0.97266 v 6.9688 c 0 0.34766 0.13281 0.69922 0.39844 0.96484 l 3.1562 3.1562 c 0.24609 0.25 0.58984 0.40625 0.97266 0.40625 h 6.0352 c 0.87891 3.7891 2.375 7.3789 4.4219 10.664 l -4.2656 4.2656 c -0.25 0.24609 -0.40625 0.58984 -0.40625 0.97266 v 4.4766 c 0 0.34766 0.13281 0.69922 0.39844 0.96484 l 4.9219 4.9219 c 0.24609 0.25 0.58984 0.40625 0.97266 0.40625 h 4.4766 c 0.34766 0 0.69922 -0.13281 0.96484 -0.39844 l 4.2734 -4.2734 c 3.2852 2.0508 6.875 3.543 10.664 4.4219 v 6.0352 c 0 0.34766 0.13281 0.69922 0.39844 0.96484 l 3.1602 3.1562 c 0.24609 0.25 0.58984 0.40625 0.97266 0.40625 h 6.9688 c 0.34766 0 0.69922 -0.13281 0.96484 -0.39844 l 3.1562 -3.1562 c 0.25 -0.24609 0.40625 -0.58984 0.40625 -0.97266 v -6.0352 c 3.7891 -0.87891 7.3789 -2.375 10.664 -4.4219 l 4.2773 4.2695 c 0.24609 0.24609 0.58594 0.39844 0.96094 0.39844 h 4.3594 c 0.38672 0.03125 0.78516 -0.097657 1.082 -0.39453 l 4.9219 -4.9219 c 0.25 -0.24609 0.40625 -0.58984 0.40625 -0.97266 v -4.4766 c 0 -0.34766 -0.13281 -0.69922 -0.39844 -0.96484 l -4.2734 -4.2734 c 2.0508 -3.2852 3.543 -6.875 4.4219 -10.664 h 6.0352 c 0.34766 0 0.69922 -0.13281 0.96484 -0.39844 l 3.1562 -3.1562 c 0.25 -0.24609 0.40625 -0.58984 0.40625 -0.97266 v -6.9688 c 0 -0.34766 -0.13281 -0.69922 -0.39844 -0.96484 l -3.1562 -3.1562 c -0.24609 -0.25 -0.58984 -0.40625 -0.97266 -0.40625 h -6.0352 c -0.87891 -3.7891 -2.375 -7.3789 -4.4219 -10.664 l 4.2695 -4.2773 c 0.24609 -0.24609 0.39844 -0.58594 0.39844 -0.96094 v -4.3594 c 0.03125 -0.38672 -0.097656 -0.78516 -0.39453 -1.082 l -4.9219 -4.9219 c -0.24609 -0.25 -0.58984 -0.40625 -0.97266 -0.40625 h -4.4766 c -0.34766 0 -0.69922 0.13281 -0.96484 0.39844 l -4.2734 4.2734 c -3.2852 -2.0508 -6.875 -3.543 -10.664 -4.4219 v -6.0352 c 0 -0.34766 -0.13281 -0.69922 -0.39844 -0.96484 l -3.1562 -3.1562 c -0.24609 -0.25 -0.58984 -0.40625 -0.97266 -0.40625 h -6.9688 c -0.34766 0 -0.69922 0.13281 -0.96484 0.39844 l -3.1562 3.1562 c -0.25 0.24609 -0.40625 0.58984 -0.40625 0.97266 v 6.0352 c -3.7891 0.87891 -7.3789 2.375 -10.664 4.4219 l -4.2656 -4.2656 c -0.24609 -0.25 -0.58984 -0.40625 -0.97266 -0.40625 h -4.4766 c -0.34766 0 -0.69922 0.13281 -0.96484 0.39844 l -4.9219 4.9219 c -0.25 0.24609 -0.40625 0.58984 -0.40625 0.97266 v 4.4766 c 0 0.34766 0.13281 0.69922 0.39844 0.96484 l 4.2734 4.2734 c -2.0508 3.2852 -3.543 6.875 -4.4219 10.664 z m 7.2344 -10.008 c -1.1484 1.7305 -2.1406 3.5859 -2.9492 5.5391 c -0.79687 1.9219 -1.4141 3.9414 -1.8359 6.0352 c -0.097656 0.65625 -0.66406 1.1602 -1.3477 1.1602 h -6.5703 l -2.3672 2.3672 v 5.8398 l 2.3672 2.3672 h 6.5703 c 0.68359 0 1.25 0.50391 1.3477 1.1602 c 0.41797 2.0938 1.0391 4.1094 1.8359 6.0352 c 0.80859 1.9531 1.8008 3.8086 2.9492 5.5391 c 0.42578 0.53516 0.38672 1.3164 -0.10547 1.8086 l -4.6484 4.6484 v 3.3477 l 4.1289 4.1289 h 3.3477 l 4.6484 -4.6484 c 0.49219 -0.49219 1.2734 -0.53125 1.8086 -0.10547 c 1.7305 1.1484 3.5859 2.1406 5.5391 2.9492 c 1.9219 0.79688 3.9414 1.4141 6.0352 1.8359 c 0.65625 0.097657 1.1602 0.66406 1.1602 1.3477 v 6.5703 l 2.3672 2.3672 h 5.8398 l 2.3672 -2.3672 v -6.5703 c 0 -0.68359 0.50391 -1.25 1.1602 -1.3477 c 2.0938 -0.41797 4.1094 -1.0391 6.0352 -1.8359 c 1.957 -0.8125 3.8086 -1.8008 5.5391 -2.9492 c 0.53516 -0.42188 1.3125 -0.38672 1.8086 0.10547 l 4.6523 4.6523 h 3.3359 l 4.1328 -4.1328 v -3.3477 l -4.6484 -4.6484 c -0.49219 -0.49219 -0.53125 -1.2734 -0.10547 -1.8086 c 1.1484 -1.7305 2.1406 -3.5859 2.9492 -5.5391 c 0.79687 -1.9219 1.4141 -3.9414 1.8359 -6.0352 c 0.097656 -0.65625 0.66406 -1.1602 1.3477 -1.1602 h 6.5703 l 2.3672 -2.3672 v -5.8398 l -2.3672 -2.3672 h -6.5703 c -0.68359 0 -1.25 -0.50391 -1.3477 -1.1602 c -0.41797 -2.0938 -1.0352 -4.1094 -1.8359 -6.0352 c -0.8125 -1.957 -1.8008 -3.8086 -2.9492 -5.5391 c -0.42188 -0.53516 -0.38672 -1.3125 0.10547 -1.8086 l 4.6523 -4.6523 v -3.3359 s -4.1328 -4.1328 -4.1328 -4.1328 h -3.3477 l -4.6484 4.6484 c -0.49219 0.49219 -1.2734 0.53125 -1.8086 0.10547 c -1.7305 -1.1484 -3.5859 -2.1406 -5.5391 -2.9492 c -1.9219 -0.79688 -3.9414 -1.4141 -6.0352 -1.8359 c -0.65625 -0.097656 -1.1602 -0.66406 -1.1602 -1.3477 v -6.5703 l -2.3672 -2.3672 h -5.8398 l -2.3672 2.3672 v 6.5703 c 0 0.68359 -0.50391 1.25 -1.1602 1.3477 c -2.0938 0.41797 -4.1094 1.0352 -6.0352 1.8359 c -1.957 0.8125 -3.8086 1.8008 -5.5391 2.9492 c -0.53516 0.42187 -1.3125 0.38672 -1.8086 -0.10547 l -4.6484 -4.6484 h -3.3477 l -4.1289 4.1289 v 3.3477 l 4.6484 4.6484 c 0.49219 0.49219 0.53125 1.2734 0.10547 1.8086 z" stroke-linecap="round"/>
</g>
<g transform="matrix(1.2588822558006165 0.033375986158737866 -0.03234100296731055 1.2198445486136926 125.47838947138175 205.9215266939334)">
<path style="stroke: none; stroke-width: 0; stroke-dasharray: none; stroke-linecap: butt; stroke-dashoffset: 0; stroke-linejoin: miter; stroke-miterlimit: 4; fill: rgb(255,152,0); fill-rule: evenodd; opacity: 1;" transform=" translate(-50.00156999999999, -50.000730000000004)" d="m 66.645 66.645 c -9.1914 9.1914 -24.098 9.1914 -33.289 0 c -9.1914 -9.1914 -9.1914 -24.098 0 -33.289 c 9.1914 -9.1914 24.098 -9.1914 33.289 0 c 9.1914 9.1914 9.1914 24.098 0 33.289 z m -16.645 4.168 c 11.492 0 20.812 -9.3164 20.812 -20.812 c 0 -11.492 -9.3164 -20.812 -20.812 -20.812 c -11.492 0 -20.812 9.3164 -20.812 20.812 c 0 11.492 9.3164 20.812 20.812 20.812 z m -34.434 -28.824 h -6.0352 c -0.34766 0 -0.69922 0.13281 -0.96484 0.39844 l -3.1562 3.1562 c -0.25 0.24609 -0.40625 0.58984 -0.40625 0.97266 v 6.9688 c 0 0.34766 0.13281 0.69922 0.39844 0.96484 l 3.1562 3.1562 c 0.24609 0.25 0.58984 0.40625 0.97266 0.40625 h 6.0352 c 0.87891 3.7891 2.375 7.3789 4.4219 10.664 l -4.2656 4.2656 c -0.25 0.24609 -0.40625 0.58984 -0.40625 0.97266 v 4.4766 c 0 0.34766 0.13281 0.69922 0.39844 0.96484 l 4.9219 4.9219 c 0.24609 0.25 0.58984 0.40625 0.97266 0.40625 h 4.4766 c 0.34766 0 0.69922 -0.13281 0.96484 -0.39844 l 4.2734 -4.2734 c 3.2852 2.0508 6.875 3.543 10.664 4.4219 v 6.0352 c 0 0.34766 0.13281 0.69922 0.39844 0.96484 l 3.1602 3.1562 c 0.24609 0.25 0.58984 0.40625 0.97266 0.40625 h 6.9688 c 0.34766 0 0.69922 -0.13281 0.96484 -0.39844 l 3.1562 -3.1562 c 0.25 -0.24609 0.40625 -0.58984 0.40625 -0.97266 v -6.0352 c 3.7891 -0.87891 7.3789 -2.375 10.664 -4.4219 l 4.2773 4.2695 c 0.24609 0.24609 0.58594 0.39844 0.96094 0.39844 h 4.3594 c 0.38672 0.03125 0.78516 -0.097657 1.082 -0.39453 l 4.9219 -4.9219 c 0.25 -0.24609 0.40625 -0.58984 0.40625 -0.97266 v -4.4766 c 0 -0.34766 -0.13281 -0.69922 -0.39844 -0.96484 l -4.2734 -4.2734 c 2.0508 -3.2852 3.543 -6.875 4.4219 -10.664 h 6.0352 c 0.34766 0 0.69922 -0.13281 0.96484 -0.39844 l 3.1562 -3.1562 c 0.25 -0.24609 0.40625 -0.58984 0.40625 -0.97266 v -6.9688 c 0 -0.34766 -0.13281 -0.69922 -0.39844 -0.96484 l -3.1562 -3.1562 c -0.24609 -0.25 -0.58984 -0.40625 -0.97266 -0.40625 h -6.0352 c -0.87891 -3.7891 -2.375 -7.3789 -4.4219 -10.664 l 4.2695 -4.2773 c 0.24609 -0.24609 0.39844 -0.58594 0.39844 -0.96094 v -4.3594 c 0.03125 -0.38672 -0.097656 -0.78516 -0.39453 -1.082 l -4.9219 -4.9219 c -0.24609 -0.25 -0.58984 -0.40625 -0.97266 -0.40625 h -4.4766 c -0.34766 0 -0.69922 0.13281 -0.96484 0.39844 l -4.2734 4.2734 c -3.2852 -2.0508 -6.875 -3.543 -10.664 -4.4219 v -6.0352 c 0 -0.34766 -0.13281 -0.69922 -0.39844 -0.96484 l -3.1562 -3.1562 c -0.24609 -0.25 -0.58984 -0.40625 -0.97266 -0.40625 h -6.9688 c -0.34766 0 -0.69922 0.13281 -0.96484 0.39844 l -3.1562 3.1562 c -0.25 0.24609 -0.40625 0.58984 -0.40625 0.97266 v 6.0352 c -3.7891 0.87891 -7.3789 2.375 -10.664 4.4219 l -4.2656 -4.2656 c -0.24609 -0.25 -0.58984 -0.40625 -0.97266 -0.40625 h -4.4766 c -0.34766 0 -0.69922 0.13281 -0.96484 0.39844 l -4.9219 4.9219 c -0.25 0.24609 -0.40625 0.58984 -0.40625 0.97266 v 4.4766 c 0 0.34766 0.13281 0.69922 0.39844 0.96484 l 4.2734 4.2734 c -2.0508 3.2852 -3.543 6.875 -4.4219 10.664 z m 7.2344 -10.008 c -1.1484 1.7305 -2.1406 3.5859 -2.9492 5.5391 c -0.79687 1.9219 -1.4141 3.9414 -1.8359 6.0352 c -0.097656 0.65625 -0.66406 1.1602 -1.3477 1.1602 h -6.5703 l -2.3672 2.3672 v 5.8398 l 2.3672 2.3672 h 6.5703 c 0.68359 0 1.25 0.50391 1.3477 1.1602 c 0.41797 2.0938 1.0391 4.1094 1.8359 6.0352 c 0.80859 1.9531 1.8008 3.8086 2.9492 5.5391 c 0.42578 0.53516 0.38672 1.3164 -0.10547 1.8086 l -4.6484 4.6484 v 3.3477 l 4.1289 4.1289 h 3.3477 l 4.6484 -4.6484 c 0.49219 -0.49219 1.2734 -0.53125 1.8086 -0.10547 c 1.7305 1.1484 3.5859 2.1406 5.5391 2.9492 c 1.9219 0.79688 3.9414 1.4141 6.0352 1.8359 c 0.65625 0.097657 1.1602 0.66406 1.1602 1.3477 v 6.5703 l 2.3672 2.3672 h 5.8398 l 2.3672 -2.3672 v -6.5703 c 0 -0.68359 0.50391 -1.25 1.1602 -1.3477 c 2.0938 -0.41797 4.1094 -1.0391 6.0352 -1.8359 c 1.957 -0.8125 3.8086 -1.8008 5.5391 -2.9492 c 0.53516 -0.42188 1.3125 -0.38672 1.8086 0.10547 l 4.6523 4.6523 h 3.3359 l 4.1328 -4.1328 v -3.3477 l -4.6484 -4.6484 c -0.49219 -0.49219 -0.53125 -1.2734 -0.10547 -1.8086 c 1.1484 -1.7305 2.1406 -3.5859 2.9492 -5.5391 c 0.79687 -1.9219 1.4141 -3.9414 1.8359 -6.0352 c 0.097656 -0.65625 0.66406 -1.1602 1.3477 -1.1602 h 6.5703 l 2.3672 -2.3672 v -5.8398 l -2.3672 -2.3672 h -6.5703 c -0.68359 0 -1.25 -0.50391 -1.3477 -1.1602 c -0.41797 -2.0938 -1.0352 -4.1094 -1.8359 -6.0352 c -0.8125 -1.957 -1.8008 -3.8086 -2.9492 -5.5391 c -0.42188 -0.53516 -0.38672 -1.3125 0.10547 -1.8086 l 4.6523 -4.6523 v -3.3359 s -4.1328 -4.1328 -4.1328 -4.1328 h -3.3477 l -4.6484 4.6484 c -0.49219 0.49219 -1.2734 0.53125 -1.8086 0.10547 c -1.7305 -1.1484 -3.5859 -2.1406 -5.5391 -2.9492 c -1.9219 -0.79688 -3.9414 -1.4141 -6.0352 -1.8359 c -0.65625 -0.097656 -1.1602 -0.66406 -1.1602 -1.3477 v -6.5703 l -2.3672 -2.3672 h -5.8398 l -2.3672 2.3672 v 6.5703 c 0 0.68359 -0.50391 1.25 -1.1602 1.3477 c -2.0938 0.41797 -4.1094 1.0352 -6.0352 1.8359 c -1.957 0.8125 -3.8086 1.8008 -5.5391 2.9492 c -0.53516 0.42187 -1.3125 0.38672 -1.8086 -0.10547 l -4.6484 -4.6484 h -3.3477 l -4.1289 4.1289 v 3.3477 l 4.6484 4.6484 c 0.49219 0.49219 0.53125 1.2734 0.10547 1.8086 z" stroke-linecap="round"/>
</g>
<g transform="matrix(1 0 0 1 328.2699563785319 200.25059663734447)" style=""><path fill="#035C5E" opacity="1" d="M-129.63-8.35L-129.63-30.96L-132.54-31.50L-132.54-34.22L-126.41-34.22Q-125.09-34.22-122.91-34.38L-122.91-34.38Q-122.44-34.42-121.74-34.45Q-121.04-34.49-120.11-34.49L-120.11-34.49Q-115.88-34.49-113.47-33.72Q-111.06-32.94-110.11-31.50Q-109.16-30.06-109.16-27.89L-109.16-27.89Q-109.16-24.98-110.96-23.07Q-112.77-21.17-115.57-20.78L-115.57-20.78Q-111.68-20.78-109.45-19.03Q-107.21-17.28-107.21-14.10L-107.21-14.10Q-107.21-9.94-110.07-7.53Q-112.92-5.12-119.76-5.12L-119.76-5.12Q-120.85-5.12-121.86-5.18Q-122.87-5.24-123.30-5.24L-123.30-5.24Q-124.70-5.36-126.33-5.36L-126.33-5.36L-132.62-5.36L-132.62-7.92L-129.63-8.35ZM-123.06-21.75Q-122.37-21.67-119.92-21.67L-119.92-21.67Q-117.78-21.67-116.77-23.13Q-115.76-24.59-115.76-27.23L-115.76-27.23Q-115.76-29.68-116.85-30.80Q-117.94-31.93-120.38-31.93L-120.38-31.93Q-120.97-31.93-121.74-31.87Q-122.52-31.81-123.06-31.74L-123.06-31.74L-123.06-21.75ZM-123.06-8.11Q-122.29-7.80-120.00-7.80L-120.00-7.80Q-117.12-7.80-115.82-9.32Q-114.52-10.83-114.52-13.71L-114.52-13.71Q-114.52-16.43-115.72-17.59Q-116.93-18.76-119.53-18.76L-119.53-18.76Q-121.67-18.76-123.06-18.68L-123.06-18.68L-123.06-8.11Z"/><path fill="#035C5E" opacity="1" d="M-105.00-11.57Q-105.00-14.99-101.52-16.82Q-98.05-18.64-92.37-18.68L-92.37-18.68L-92.37-19.46Q-92.37-20.86-92.68-21.67Q-92.99-22.49-93.81-22.90Q-94.63-23.30-96.22-23.30L-96.22-23.30Q-98.12-23.30-99.62-22.86Q-101.11-22.41-102.75-21.67L-102.75-21.67L-104.07-24.47Q-103.45-24.98-102.05-25.69Q-100.65-26.41-98.69-26.94Q-96.72-27.46-94.59-27.46L-94.59-27.46Q-91.48-27.46-89.71-26.65Q-87.94-25.83-87.19-24.12Q-86.43-22.41-86.43-19.46L-86.43-19.46L-86.43-7.92L-84.41-7.92L-84.41-5.47Q-85.30-5.28-86.90-5.08Q-88.49-4.89-89.61-4.89L-89.61-4.89Q-91.09-4.89-91.58-5.32Q-92.06-5.74-92.06-7.03L-92.06-7.03L-92.06-7.92Q-93.03-6.75-94.67-5.84Q-96.30-4.93-98.43-4.93L-98.43-4.93Q-100.26-4.93-101.76-5.72Q-103.25-6.52-104.13-8.02Q-105.00-9.51-105.00-11.57L-105.00-11.57ZM-95.40-8.50Q-94.70-8.50-93.85-8.91Q-92.99-9.32-92.37-9.90L-92.37-9.90L-92.37-16.08Q-95.40-16.08-96.86-14.99Q-98.32-13.90-98.32-12.19L-98.32-12.19Q-98.32-10.45-97.54-9.47Q-96.76-8.50-95.40-8.50L-95.40-8.50Z"/><path fill="#035C5E" opacity="1" d="M-75.75-5.01Q-78.31-5.01-79.53-6.19Q-80.76-7.38-80.76-9.86L-80.76-9.86L-80.76-23.69L-83.13-23.69L-83.13-25.95L-82.35-26.26Q-81.42-26.57-80.72-26.92L-80.72-26.92Q-79.94-27.66-79.48-28.86L-79.48-28.86Q-78.89-30.26-78.19-32.78L-78.19-32.78L-74.58-32.78L-74.35-26.96L-68.79-26.96L-68.79-23.69L-74.27-23.69L-74.27-13.40Q-74.27-11.26-74.15-10.41Q-74.04-9.55-73.71-9.30Q-73.38-9.05-72.48-9.05L-72.48-9.05Q-70.66-9.05-69.02-9.67L-69.02-9.67L-68.21-7.22Q-69.30-6.33-71.43-5.67Q-73.57-5.01-75.75-5.01L-75.75-5.01Z"/><path fill="#035C5E" opacity="1" d="M-59.89-5.01Q-62.46-5.01-63.68-6.19Q-64.91-7.38-64.91-9.86L-64.91-9.86L-64.91-23.69L-67.28-23.69L-67.28-25.95L-66.50-26.26Q-65.57-26.57-64.87-26.92L-64.87-26.92Q-64.09-27.66-63.62-28.86L-63.62-28.86Q-63.04-30.26-62.34-32.78L-62.34-32.78L-58.73-32.78L-58.50-26.96L-52.94-26.96L-52.94-23.69L-58.42-23.69L-58.42-13.40Q-58.42-11.26-58.30-10.41Q-58.19-9.55-57.86-9.30Q-57.52-9.05-56.63-9.05L-56.63-9.05Q-54.81-9.05-53.17-9.67L-53.17-9.67L-52.36-7.22Q-53.45-6.33-55.58-5.67Q-57.72-5.01-59.89-5.01L-59.89-5.01Z"/><path fill="#035C5E" opacity="1" d="M-52.94-24.47L-52.94-26.92L-42.30-26.92L-42.30-24.47L-44.90-24.04L-42.26-14.37L-41.44-10.52L-40.74-14.37L-37.40-26.92L-32.16-26.92L-28.31-14.37L-27.49-10.56L-26.72-14.37L-24.27-24.00L-27.07-24.47L-27.07-26.92L-18.52-26.92L-18.52-24.47L-20.38-24.04L-26.25-5.05L-31.18-5.05L-35.03-16.93L-35.85-21.44L-36.43-16.93L-39.89-5.05L-44.94-5.05L-51.11-24.04L-52.94-24.47Z"/><path fill="#035C5E" opacity="1" d="M-16.19-8.27L-16.19-33.41L-18.95-33.91L-18.95-36.28L-11.14-37.21L-11.02-37.21L-9.89-36.40L-9.86-27.97L-10.17-24.51Q-8.96-25.64-6.98-26.51Q-5.00-27.38-2.63-27.38L-2.63-27.38Q-0.18-27.38 1.18-26.49Q2.54-25.60 3.08-23.77Q3.63-21.94 3.63-18.91L3.63-18.91L3.63-8.27L5.99-7.92L5.99-5.36L-4.81-5.36L-4.81-7.92L-2.75-8.27L-2.75-18.88Q-2.75-21.60-3.33-22.66Q-3.91-23.73-5.70-23.73L-5.70-23.73Q-6.79-23.73-7.87-23.25Q-8.96-22.76-9.70-22.06L-9.70-22.06L-9.70-8.27L-7.56-7.92L-7.56-5.36L-18.21-5.36L-18.21-7.92L-16.19-8.27Z"/><path fill="#035C5E" opacity="1" d="M18.39-4.93Q13.07-4.93 10.50-7.94Q7.94-10.95 7.94-16.16L7.94-16.16Q7.94-19.69 9.26-22.26Q10.58-24.82 12.97-26.16Q15.36-27.50 18.58-27.50L18.58-27.50Q22.66-27.50 24.82-25.44Q26.97-23.38 27.05-19.61L27.05-19.61Q27.05-17.13 26.70-15.61L26.70-15.61L14.54-15.61Q14.74-12.31 16.15-10.58Q17.57-8.85 20.14-8.85L20.14-8.85Q21.57-8.85 23.15-9.34Q24.72-9.82 25.69-10.45L25.69-10.45L26.78-8.08Q25.77-6.95 23.34-5.94Q20.91-4.93 18.39-4.93L18.39-4.93ZM14.50-18.18L20.87-18.18L20.91-19.81Q20.91-22.26 20.25-23.54Q19.59-24.82 18.00-24.82L18.00-24.82Q16.37-24.82 15.47-23.40Q14.58-21.98 14.50-18.18L14.50-18.18Z"/><path fill="#035C5E" opacity="1" d="M39.91-4.93Q34.59-4.93 32.02-7.94Q29.46-10.95 29.46-16.16L29.46-16.16Q29.46-19.69 30.78-22.26Q32.10-24.82 34.49-26.16Q36.88-27.50 40.11-27.50L40.11-27.50Q44.18-27.50 46.34-25.44Q48.50-23.38 48.57-19.61L48.57-19.61Q48.57-17.13 48.22-15.61L48.22-15.61L36.06-15.61Q36.26-12.31 37.68-10.58Q39.10-8.85 41.66-8.85L41.66-8.85Q43.10-8.85 44.67-9.34Q46.24-9.82 47.21-10.45L47.21-10.45L48.30-8.08Q47.29-6.95 44.86-5.94Q42.44-4.93 39.91-4.93L39.91-4.93ZM36.03-18.18L42.40-18.18L42.44-19.81Q42.44-22.26 41.78-23.54Q41.12-24.82 39.52-24.82L39.52-24.82Q37.89-24.82 37.00-23.40Q36.10-21.98 36.03-18.18L36.03-18.18Z"/><path fill="#035C5E" opacity="1" d="M53.43-8.27L53.43-33.41L50.71-33.91L50.71-36.28L58.48-37.21L58.60-37.21L59.72-36.40L59.72-8.27L62.25-7.92L62.25-5.36L50.94-5.36L50.94-7.92L53.43-8.27Z"/><path fill="#035C5E" opacity="1" d="M68.66-11.65L69.63-8.58Q69.90-8.15 70.89-7.80Q71.88-7.45 72.89-7.45L72.89-7.45Q74.49-7.45 75.32-8.13Q76.16-8.81 76.16-9.90L76.16-9.90Q76.16-11.07 75.07-11.82Q73.98-12.58 71.50-13.67L71.50-13.67L70.02-14.33Q67.49-15.46 66.23-17.07Q64.97-18.68 64.97-21.17L64.97-21.17Q64.97-22.95 66.02-24.37Q67.07-25.79 69.05-26.61Q71.03-27.42 73.71-27.42L73.71-27.42Q75.58-27.42 76.93-27.19Q78.29-26.96 79.69-26.61L79.69-26.61Q80.63-26.33 81.09-26.30L81.09-26.30L81.09-21.01L77.63-21.01L76.62-24.00Q76.43-24.35 75.69-24.64Q74.95-24.94 74.02-24.94L74.02-24.94Q72.54-24.94 71.69-24.30Q70.84-23.65 70.84-22.57L70.84-22.57Q70.84-21.32 71.81-20.60Q72.78-19.89 74.91-18.91L74.91-18.91L75.73-18.56Q78.88-17.24 80.66-15.71Q82.45-14.17 82.45-11.49L82.45-11.49Q82.45-8.62 80.16-6.77Q77.87-4.93 73.40-4.93L73.40-4.93Q71.34-4.93 69.75-5.26Q68.15-5.59 66.25-6.13L66.25-6.13L64.97-6.48L64.97-11.65L68.66-11.65Z"/><path fill="#035C5E" opacity="1" d="M-119.02 30.19Q-123.38 30.19-126.48 28.29Q-129.59 26.38-131.18 23.08Q-132.78 19.78-132.78 15.58L-132.78 15.58Q-132.78 10.77-130.95 7.39Q-129.13 4.01-125.73 2.28Q-122.33 0.55-117.66 0.55L-117.66 0.55Q-114.98 0.55-112.34 0.94Q-109.70 1.33-107.87 1.75L-107.87 1.75L-108.34 9.25L-113.00 9.25L-114.09 4.12Q-114.44 3.74-115.35 3.44Q-116.27 3.15-117.82 3.15L-117.82 3.15Q-121.28 3.15-123.18 6.20Q-125.09 9.25-125.09 15.04L-125.09 15.04Q-125.09 20.79-123.47 24.15Q-121.86 27.51-118.44 27.51L-118.44 27.51Q-117.04 27.51-115.90 27.14Q-114.75 26.77-114.17 26.19L-114.17 26.19L-114.17 18.07L-117.78 17.68L-117.78 14.85L-105.66 14.85L-105.66 17.68L-107.60 17.99L-107.60 28.21Q-108.26 28.25-110.67 28.83L-110.67 28.83Q-113.04 29.45-114.95 29.82Q-116.85 30.19-119.02 30.19L-119.02 30.19Z"/><path fill="#035C5E" opacity="1" d="M-103.83 23.55Q-103.83 20.13-100.36 18.30Q-96.88 16.48-91.21 16.44L-91.21 16.44L-91.21 15.66Q-91.21 14.26-91.52 13.45Q-91.83 12.63-92.65 12.22Q-93.46 11.82-95.05 11.82L-95.05 11.82Q-96.96 11.82-98.45 12.26Q-99.95 12.71-101.58 13.45L-101.58 13.45L-102.90 10.65Q-102.28 10.15-100.88 9.43Q-99.48 8.71-97.52 8.18Q-95.56 7.66-93.42 7.66L-93.42 7.66Q-90.31 7.66-88.55 8.47Q-86.78 9.29-86.02 11.00Q-85.26 12.71-85.26 15.66L-85.26 15.66L-85.26 27.20L-83.24 27.20L-83.24 29.65Q-84.14 29.84-85.73 30.04Q-87.32 30.23-88.45 30.23L-88.45 30.23Q-89.93 30.23-90.41 29.80Q-90.90 29.38-90.90 28.09L-90.90 28.09L-90.90 27.20Q-91.87 28.37-93.50 29.28Q-95.13 30.19-97.27 30.19L-97.27 30.19Q-99.09 30.19-100.59 29.40Q-102.09 28.60-102.96 27.10Q-103.83 25.61-103.83 23.55L-103.83 23.55ZM-94.24 26.62Q-93.54 26.62-92.68 26.21Q-91.83 25.80-91.21 25.22L-91.21 25.22L-91.21 19.04Q-94.24 19.04-95.69 20.13Q-97.15 21.22-97.15 22.93L-97.15 22.93Q-97.15 24.68-96.37 25.65Q-95.60 26.62-94.24 26.62L-94.24 26.62Z"/><path fill="#035C5E" opacity="1" d="M-81.11 29.76L-81.11 27.20L-78.74 26.85L-78.74 12.24L-81.03 11.54L-81.03 8.51L-74.58 7.66L-74.46 7.66L-73.38 8.47L-73.38 9.41L-73.49 12.63L-73.38 12.63Q-73.10 11.74-72.13 10.55Q-71.16 9.37-69.67 8.49Q-68.17 7.62-66.42 7.62L-66.42 7.62Q-65.41 7.62-64.87 7.89L-64.87 7.89L-64.87 14.65Q-65.49 14.19-66.21 13.91Q-66.93 13.64-68.05 13.64L-68.05 13.64Q-69.45 13.64-70.58 14.01Q-71.71 14.38-72.37 14.85L-72.37 14.85L-72.37 26.85L-68.09 27.24L-68.09 29.76L-81.11 29.76Z"/><path fill="#035C5E" opacity="1" d="M-63.04 23.55Q-63.04 20.13-59.56 18.30Q-56.09 16.48-50.42 16.44L-50.42 16.44L-50.42 15.66Q-50.42 14.26-50.73 13.45Q-51.04 12.63-51.85 12.22Q-52.67 11.82-54.26 11.82L-54.26 11.82Q-56.17 11.82-57.66 12.26Q-59.16 12.71-60.79 13.45L-60.79 13.45L-62.11 10.65Q-61.49 10.15-60.09 9.43Q-58.69 8.71-56.73 8.18Q-54.77 7.66-52.63 7.66L-52.63 7.66Q-49.52 7.66-47.75 8.47Q-45.99 9.29-45.23 11.00Q-44.47 12.71-44.47 15.66L-44.47 15.66L-44.47 27.20L-42.45 27.20L-42.45 29.65Q-43.34 29.84-44.94 30.04Q-46.53 30.23-47.66 30.23L-47.66 30.23Q-49.13 30.23-49.62 29.80Q-50.10 29.38-50.10 28.09L-50.10 28.09L-50.10 27.20Q-51.08 28.37-52.71 29.28Q-54.34 30.19-56.48 30.19L-56.48 30.19Q-58.30 30.19-59.80 29.40Q-61.29 28.60-62.17 27.10Q-63.04 25.61-63.04 23.55L-63.04 23.55ZM-53.45 26.62Q-52.75 26.62-51.89 26.21Q-51.04 25.80-50.42 25.22L-50.42 25.22L-50.42 19.04Q-53.45 19.04-54.90 20.13Q-56.36 21.22-56.36 22.93L-56.36 22.93Q-56.36 24.68-55.58 25.65Q-54.81 26.62-53.45 26.62L-53.45 26.62Z"/><path fill="#035C5E" opacity="1" d="M-30.76 40.25Q-36.12 40.25-38.51 38.58Q-40.90 36.91-40.90 34.12L-40.90 34.12Q-40.90 32.56-39.85 31.16Q-38.80 29.76-37.21 29.07L-37.21 29.07Q-39.03 28.02-39.03 25.72L-39.03 25.72Q-39.03 24.48-38.18 23.30Q-37.32 22.11-35.89 21.49L-35.89 21.49Q-40.20 19.90-40.20 14.88L-40.20 14.88Q-40.20 12.67-38.88 11.02Q-37.56 9.37-35.30 8.49Q-33.05 7.62-30.33 7.62L-30.33 7.62Q-25.47 7.62-23.22 9.41L-23.22 9.41Q-22.68 8.75-21.51 8.14Q-20.35 7.54-19.10 7.54L-19.10 7.54L-17.70 7.54L-17.70 12.28L-21.55 12.28Q-21.16 13.37-21.16 14.50L-21.16 14.50Q-21.16 18.07-23.69 20.17Q-26.21 22.27-30.87 22.27L-30.87 22.27Q-32.78 22.27-34.02 21.99L-34.02 21.99Q-34.25 22.46-34.39 22.97Q-34.53 23.47-34.53 23.78L-34.53 23.78Q-34.53 24.99-33.63 25.43Q-32.74 25.88-30.37 25.88L-30.37 25.88L-26.37 25.88Q-18.17 25.88-18.17 31.75L-18.17 31.75Q-18.17 34.31-19.96 36.25Q-21.74 38.19-24.64 39.22Q-27.53 40.25-30.76 40.25L-30.76 40.25ZM-30.49 19.62Q-28.85 19.62-28.13 18.40Q-27.42 17.18-27.42 14.88L-27.42 14.88Q-27.42 12.40-28.15 11.27Q-28.89 10.15-30.52 10.15L-30.52 10.15Q-33.83 10.15-33.83 14.73L-33.83 14.73Q-33.83 19.62-30.49 19.62L-30.49 19.62ZM-30.02 37.34Q-27.88 37.34-26.37 36.21Q-24.85 35.09-24.85 33.03L-24.85 33.03Q-24.85 31.40-25.67 30.72Q-26.48 30.04-28.54 30.04L-28.54 30.04L-32.51 30.04Q-33.13 30.04-33.90 29.96L-33.90 29.96Q-34.64 31.16-34.64 32.95L-34.64 32.95Q-34.64 37.34-30.02 37.34L-30.02 37.34Z"/><path fill="#035C5E" opacity="1" d="M-5.82 30.19Q-11.14 30.19-13.70 27.18Q-16.27 24.17-16.27 18.96L-16.27 18.96Q-16.27 15.43-14.95 12.86Q-13.62 10.30-11.24 8.96Q-8.85 7.62-5.62 7.62L-5.62 7.62Q-1.54 7.62 0.61 9.68Q2.77 11.74 2.85 15.51L2.85 15.51Q2.85 17.99 2.50 19.51L2.50 19.51L-9.66 19.51Q-9.47 22.81-8.05 24.54Q-6.63 26.27-4.07 26.27L-4.07 26.27Q-2.63 26.27-1.06 25.78Q0.52 25.30 1.49 24.68L1.49 24.68L2.58 27.05Q1.57 28.17-0.86 29.18Q-3.29 30.19-5.82 30.19L-5.82 30.19ZM-9.70 16.94L-3.33 16.94L-3.29 15.31Q-3.29 12.86-3.95 11.58Q-4.61 10.30-6.20 10.30L-6.20 10.30Q-7.84 10.30-8.73 11.72Q-9.62 13.14-9.70 16.94L-9.70 16.94Z"/><path fill="#035C5E" opacity="1" d="M9.57 23.47L10.54 26.54Q10.81 26.97 11.80 27.32Q12.79 27.67 13.80 27.67L13.80 27.67Q15.40 27.67 16.23 26.99Q17.07 26.31 17.07 25.22L17.07 25.22Q17.07 24.05 15.98 23.30Q14.89 22.54 12.41 21.45L12.41 21.45L10.93 20.79Q8.40 19.66 7.14 18.05Q5.88 16.44 5.88 13.95L5.88 13.95Q5.88 12.17 6.93 10.75Q7.98 9.33 9.96 8.51Q11.94 7.70 14.62 7.70L14.62 7.70Q16.48 7.70 17.84 7.93Q19.20 8.16 20.60 8.51L20.60 8.51Q21.53 8.79 22.00 8.82L22.00 8.82L22.00 14.11L18.54 14.11L17.53 11.12Q17.34 10.77 16.60 10.48Q15.86 10.18 14.93 10.18L14.93 10.18Q13.45 10.18 12.60 10.83Q11.74 11.47 11.74 12.55L11.74 12.55Q11.74 13.80 12.72 14.52Q13.69 15.23 15.82 16.21L15.82 16.21L16.64 16.56Q19.79 17.88 21.57 19.41Q23.36 20.95 23.36 23.63L23.36 23.63Q23.36 26.50 21.07 28.35Q18.78 30.19 14.31 30.19L14.31 30.19Q12.25 30.19 10.66 29.86Q9.06 29.53 7.16 28.99L7.16 28.99L5.88 28.64L5.88 23.47L9.57 23.47Z"/></g><g transform="matrix(1.002921168017384 0 0 1.002921168017384 138.24170545895478 217.54832065922926)">
<path style="stroke: none; stroke-width: 0; stroke-dasharray: none; stroke-linecap: butt; stroke-dashoffset: 0; stroke-linejoin: miter; stroke-miterlimit: 4; fill: rgb(4,100,106); fill-rule: nonzero; opacity: 1;" transform=" translate(-36.03075823566843, -36.016734409195294)" d="M 69 57.9 L 45.6 36.6 c -0.3 -0.3 -0.4 -0.7 -0.2 -1.1 c 4.8 -9 3.4 -20.4 -4.2 -28 c -9.9 -9.9 -26.4 -9.3 -35.5 2 c -6.8 8.5 -6.9 20.7 -0.3 29.3 c 3.3 4.2 7.6 7 12.2 8.4 c 0.4 0.1 0.6 0.4 0.6 0.8 l -0.5 17 c -0.1 3.4 2.6 6.5 5.9 6.5 c 3.5 0.1 6.4 -2.8 6.3 -6.3 l -0.5 -16.9 c 0 -0.4 0.2 -0.7 0.6 -0.8 c 1.9 -0.5 3.7 -1.1 5.5 -2.1 c 0.4 -0.2 0.8 -0.1 1.1 0.2 l 21.1 23.2 c 2.9 3.2 8 3.7 11.2 0.8 C 72.4 66.4 72.4 61 69 57.9 z M 23.7 67.7 c -1.7 0 -3 -1.4 -3 -3 c 0 -1.7 1.4 -3 3 -3 c 1.7 0 3 1.4 3 3 C 26.8 66.3 25.4 67.7 23.7 67.7 z M 37 34.7 c -1.9 2.3 -4.3 3.9 -6.8 4.9 c -0.5 0.2 -1.1 -0.2 -1.1 -0.7 l -0.1 -3.8 c 0 -0.4 0.2 -0.8 0.6 -1 c 3.3 -2 5.6 -5.6 5.6 -9.8 c 0 -4.8 -3 -8.9 -7.2 -10.6 c -0.4 -0.2 -0.8 0.2 -0.7 0.6 l 1.7 6.6 c 0.6 2.5 -0.6 5.3 -3.1 6.2 c -2.8 1 -5.8 -0.6 -6.6 -3.5 l -2 -7.7 c -0.1 -0.4 -0.6 -0.5 -0.9 -0.3 c -2.5 2.1 -4 5.2 -4 8.7 c 0 4.2 2.2 7.8 5.6 9.8 c 0.4 0.2 0.6 0.6 0.6 1 l -0.1 3.3 c 0 0.6 -0.6 1 -1.2 0.7 c -2 -0.9 -3.8 -2.3 -5.4 -4.1 c -5.3 -6.2 -5.2 -15.5 0.2 -21.6 c 6.8 -7.6 18.8 -7.3 25.2 0.9 C 41.9 20.3 41.8 28.9 37 34.7 z" stroke-linecap="round"/>
</g>
<g transform="matrix(1 0 0 1 304.9568904339824 250.45381959598092)" style=""><path fill="#FF9800" opacity="1" d="M-105.83 3.81L-105.83 0.26L-109.16-5.55L-110.04-5.76L-110.04-6.88L-104.98-6.88L-104.98-5.76L-106.03-5.54L-104.20-1.86L-103.80-0.82L-103.38-1.86L-101.72-5.54L-102.94-5.76L-102.94-6.88L-98.85-6.88L-98.85-5.76L-99.83-5.58L-102.91 0.24L-102.91 3.81L-101.21 3.98L-101.21 5.04L-107.49 5.04L-107.49 3.98L-105.83 3.81Z"/><path fill="#FF9800" opacity="1" d="M-98.48 0.63Q-98.48-0.91-97.87-1.98Q-97.26-3.05-96.23-3.58Q-95.19-4.11-93.96-4.11L-93.96-4.11Q-91.93-4.11-90.79-2.89Q-89.64-1.68-89.64 0.48L-89.64 0.48Q-89.64 2.07-90.25 3.13Q-90.86 4.19-91.89 4.70Q-92.91 5.22-94.18 5.22L-94.18 5.22Q-96.19 5.22-97.34 4.01Q-98.48 2.79-98.48 0.63L-98.48 0.63ZM-94.02 4.09Q-93.25 4.09-92.87 3.27Q-92.50 2.44-92.50 0.68L-92.50 0.68Q-92.50-1.20-92.86-2.09Q-93.22-2.98-94.07-2.98L-94.07-2.98Q-95.64-2.98-95.64 0.44L-95.64 0.44Q-95.64 2.30-95.26 3.20Q-94.87 4.09-94.02 4.09L-94.02 4.09Z"/><path fill="#FF9800" opacity="1" d="M-80.99 5.20Q-81.57 5.20-81.82 4.95Q-82.08 4.70-82.08 4.22L-82.08 4.22L-82.08 3.87Q-82.46 4.40-83.24 4.81Q-84.01 5.22-84.79 5.22L-84.79 5.22Q-86.37 5.22-87.03 4.44Q-87.70 3.66-87.70 1.83L-87.70 1.83L-87.70-2.63L-88.45-2.84L-88.45-3.87L-85.43-4.07L-85.42-4.07L-85.07-3.85L-85.07 1.90Q-85.07 2.94-84.81 3.35Q-84.55 3.76-83.89 3.76L-83.89 3.76Q-82.99 3.76-82.38 3.15L-82.38 3.15L-82.38-2.63L-83.38-2.87L-83.38-3.87L-80.20-4.07L-80.15-4.07L-79.77-3.85L-79.77 3.93L-78.92 3.93L-78.92 4.96Q-79.46 5.07-79.92 5.14Q-80.38 5.20-80.99 5.20L-80.99 5.20Z"/><path fill="#FF9800" opacity="1" d="M-77.87 5.04L-77.87 3.98L-76.90 3.84L-76.90-2.20L-77.84-2.49L-77.84-3.74L-75.18-4.09L-75.13-4.09L-74.68-3.75L-74.68-3.37L-74.73-2.04L-74.68-2.04Q-74.57-2.41-74.17-2.89Q-73.77-3.38-73.15-3.75Q-72.53-4.11-71.81-4.11L-71.81-4.11Q-71.39-4.11-71.17-3.99L-71.17-3.99L-71.17-1.20Q-71.42-1.39-71.72-1.51Q-72.02-1.62-72.48-1.62L-72.48-1.62Q-73.06-1.62-73.53-1.47Q-73.99-1.31-74.26-1.12L-74.26-1.12L-74.26 3.84L-72.50 4.00L-72.50 5.04L-77.87 5.04Z"/><path fill="#FF9800" opacity="1" d=""/><path fill="#FF9800" opacity="1" d="M-65.28 3.82L-65.28-5.54L-66.53-5.76L-66.53-6.88L-57.75-6.88L-57.54-4.04L-58.81-4.04L-59.37-5.66L-62.53-5.82L-62.53-1.65L-60.57-1.70L-60.28-3.02L-59.18-3.02L-59.18 1.01L-60.28 1.01L-60.56-0.38L-62.53-0.43L-62.53 3.93L-59.02 3.71L-58.04 1.64L-56.67 2.02L-57.06 5.04L-66.51 5.04L-66.51 3.98L-65.28 3.82Z"/><path fill="#FF9800" opacity="1" d="M-56.82-5.76L-56.82-6.88L-51.57-6.88L-51.57-5.76L-52.88-5.55L-50.65 1.43L-50.25 2.84L-49.93 1.41L-47.80-5.54L-49.05-5.76L-49.05-6.88L-44.97-6.88L-44.97-5.76L-46.02-5.54L-49.64 5.15L-51.87 5.15L-55.87-5.54L-56.82-5.76Z"/><path fill="#FF9800" opacity="1" d=""/><path fill="#FF9800" opacity="1" d="M-35.79 5.22Q-38.49 5.22-39.79 3.59Q-41.09 1.96-41.09-0.90L-41.09-0.90Q-41.09-2.74-40.41-4.13Q-39.72-5.52-38.49-6.27Q-37.25-7.03-35.60-7.03L-35.60-7.03Q-32.84-7.03-31.53-5.49Q-30.22-3.96-30.22-1.12L-30.22-1.12Q-30.22 0.76-30.91 2.19Q-31.60 3.63-32.86 4.42Q-34.12 5.22-35.79 5.22L-35.79 5.22ZM-35.65-5.97Q-36.80-5.97-37.44-4.70Q-38.07-3.43-38.07-0.91L-38.07-0.91Q-38.07 1.66-37.44 2.90Q-36.82 4.14-35.66 4.14L-35.66 4.14Q-34.52 4.14-33.89 2.79Q-33.26 1.43-33.26-1.11L-33.26-1.11Q-33.26-3.67-33.87-4.82Q-34.48-5.97-35.65-5.97L-35.65-5.97Z"/><path fill="#FF9800" opacity="1" d="M-21.88 5.20Q-22.45 5.20-22.71 4.95Q-22.97 4.70-22.97 4.22L-22.97 4.22L-22.97 3.87Q-23.35 4.40-24.12 4.81Q-24.89 5.22-25.68 5.22L-25.68 5.22Q-27.25 5.22-27.92 4.44Q-28.59 3.66-28.59 1.83L-28.59 1.83L-28.59-2.63L-29.34-2.84L-29.34-3.87L-26.32-4.07L-26.31-4.07L-25.95-3.85L-25.95 1.90Q-25.95 2.94-25.70 3.35Q-25.44 3.76-24.78 3.76L-24.78 3.76Q-23.88 3.76-23.27 3.15L-23.27 3.15L-23.27-2.63L-24.27-2.87L-24.27-3.87L-21.09-4.07L-21.04-4.07L-20.66-3.85L-20.66 3.93L-19.81 3.93L-19.81 4.96Q-20.35 5.07-20.81 5.14Q-21.27 5.20-21.88 5.20L-21.88 5.20Z"/><path fill="#FF9800" opacity="1" d="M-18.76 5.04L-18.76 3.98L-17.78 3.84L-17.78-2.20L-18.73-2.49L-18.73-3.74L-16.07-4.09L-16.02-4.09L-15.57-3.75L-15.57-3.37L-15.62-2.04L-15.57-2.04Q-15.46-2.41-15.05-2.89Q-14.65-3.38-14.04-3.75Q-13.42-4.11-12.70-4.11L-12.70-4.11Q-12.28-4.11-12.05-3.99L-12.05-3.99L-12.05-1.20Q-12.31-1.39-12.61-1.51Q-12.90-1.62-13.37-1.62L-13.37-1.62Q-13.95-1.62-14.41-1.47Q-14.88-1.31-15.15-1.12L-15.15-1.12L-15.15 3.84L-13.39 4.00L-13.39 5.04L-18.76 5.04Z"/><path fill="#FF9800" opacity="1" d=""/><path fill="#FF9800" opacity="1" d="M-7.40 5.04L-7.40 3.98L-6.16 3.82L-6.16-5.55L-7.33-5.78L-7.33-6.88L-4.86-6.88Q-4.56-6.88-4.20-6.90Q-3.84-6.92-3.64-6.93L-3.64-6.93Q-2.78-7.00-2.17-7.00L-2.17-7.00Q-0.45-7.00 0.56-6.67Q1.57-6.34 2.03-5.64Q2.49-4.94 2.49-3.80L2.49-3.80Q2.49-2.71 1.91-1.76Q1.33-0.82 0.21-0.46L0.21-0.46Q0.95-0.19 1.45 0.56Q1.96 1.30 2.50 2.46L2.50 2.46Q2.82 3.13 3.02 3.46Q3.21 3.79 3.42 3.84L3.42 3.84L3.88 3.98L3.88 5.04L0.83 5.04Q0.59 5.04 0.34 4.53Q0.08 4.01-0.32 2.92L-0.32 2.92Q-0.82 1.59-1.18 0.86Q-1.54 0.13-1.97-0.03L-1.97-0.03L-3.42-0.03L-3.42 3.82L-1.99 3.98L-1.99 5.04L-7.40 5.04ZM-2.18-1.07Q-1.35-1.07-0.88-1.72Q-0.42-2.37-0.42-3.69L-0.42-3.69Q-0.42-4.84-0.87-5.38Q-1.33-5.92-2.41-5.92L-2.41-5.92Q-2.99-5.92-3.42-5.84L-3.42-5.84L-3.42-1.12Q-3.21-1.07-2.73-1.07Q-2.25-1.07-2.18-1.07L-2.18-1.07Z"/><path fill="#FF9800" opacity="1" d="M8.60 5.22Q6.40 5.22 5.34 3.97Q4.29 2.73 4.29 0.58L4.29 0.58Q4.29-0.88 4.83-1.94Q5.38-3.00 6.36-3.55Q7.35-4.11 8.68-4.11L8.68-4.11Q10.37-4.11 11.26-3.26Q12.15-2.41 12.18-0.85L12.18-0.85Q12.18 0.18 12.04 0.80L12.04 0.80L7.01 0.80Q7.09 2.17 7.68 2.88Q8.27 3.60 9.33 3.60L9.33 3.60Q9.92 3.60 10.57 3.40Q11.22 3.20 11.62 2.94L11.62 2.94L12.07 3.92Q11.65 4.38 10.65 4.80Q9.65 5.22 8.60 5.22L8.60 5.22ZM7.00-0.25L9.63-0.25L9.65-0.93Q9.65-1.94 9.37-2.47Q9.10-3.00 8.44-3.00L8.44-3.00Q7.77-3.00 7.40-2.41Q7.03-1.83 7.00-0.25L7.00-0.25Z"/><path fill="#FF9800" opacity="1" d="M14.96 2.44L15.36 3.71Q15.47 3.89 15.88 4.03Q16.29 4.18 16.71 4.18L16.71 4.18Q17.37 4.18 17.71 3.89Q18.06 3.61 18.06 3.16L18.06 3.16Q18.06 2.68 17.61 2.37Q17.16 2.06 16.13 1.61L16.13 1.61L15.52 1.33Q14.48 0.87 13.96 0.20Q13.43-0.46 13.43-1.49L13.43-1.49Q13.43-2.23 13.87-2.81Q14.30-3.40 15.12-3.74Q15.94-4.07 17.05-4.07L17.05-4.07Q17.82-4.07 18.38-3.98Q18.94-3.88 19.52-3.74L19.52-3.74Q19.90-3.63 20.09-3.61L20.09-3.61L20.09-1.43L18.67-1.43L18.25-2.66Q18.17-2.81 17.86-2.93Q17.56-3.05 17.17-3.05L17.17-3.05Q16.56-3.05 16.21-2.78Q15.86-2.52 15.86-2.07L15.86-2.07Q15.86-1.55 16.26-1.26Q16.66-0.96 17.54-0.56L17.54-0.56L17.88-0.42Q19.18 0.13 19.92 0.76Q20.66 1.40 20.66 2.51L20.66 2.51Q20.66 3.69 19.71 4.46Q18.76 5.22 16.92 5.22L16.92 5.22Q16.07 5.22 15.41 5.08Q14.75 4.95 13.96 4.72L13.96 4.72L13.43 4.58L13.43 2.44L14.96 2.44Z"/><path fill="#FF9800" opacity="1" d="M30.88 0.29Q30.88 1.62 30.33 2.75Q29.77 3.87 28.69 4.54Q27.61 5.22 26.08 5.22L26.08 5.22Q25.82 5.22 25.53 5.17Q25.23 5.12 25.07 5.06L25.07 5.06L25.12 6.36L25.12 7.72L26.50 7.93L26.50 8.93L21.57 8.93L21.57 7.93L22.55 7.72L22.55-2.20L21.57-2.49L21.57-3.74L24.44-4.09L24.48-4.09L24.91-3.75L24.91-2.89Q25.28-3.38 25.94-3.75Q26.61-4.11 27.40-4.11L27.40-4.11Q28.94-4.11 29.91-3.02Q30.88-1.94 30.88 0.29L30.88 0.29ZM26.45-2.63Q26.03-2.63 25.66-2.46Q25.29-2.29 25.12-2.05L25.12-2.05L25.12 3.82Q25.23 3.97 25.51 4.06Q25.79 4.16 26.13 4.16L26.13 4.16Q27.03 4.16 27.57 3.29Q28.10 2.43 28.10 0.48L28.10 0.48Q28.10-1.09 27.65-1.86Q27.20-2.63 26.45-2.63L26.45-2.63Z"/><path fill="#FF9800" opacity="1" d="M32.15 0.63Q32.15-0.91 32.76-1.98Q33.37-3.05 34.40-3.58Q35.44-4.11 36.67-4.11L36.67-4.11Q38.70-4.11 39.84-2.89Q40.99-1.68 40.99 0.48L40.99 0.48Q40.99 2.07 40.38 3.13Q39.77 4.19 38.74 4.70Q37.72 5.22 36.45 5.22L36.45 5.22Q34.44 5.22 33.30 4.01Q32.15 2.79 32.15 0.63L32.15 0.63ZM36.61 4.09Q37.38 4.09 37.76 3.27Q38.13 2.44 38.13 0.68L38.13 0.68Q38.13-1.20 37.77-2.09Q37.41-2.98 36.56-2.98L36.56-2.98Q34.99-2.98 34.99 0.44L34.99 0.44Q34.99 2.30 35.37 3.20Q35.76 4.09 36.61 4.09L36.61 4.09Z"/><path fill="#FF9800" opacity="1" d="M43.30 3.84L43.30-2.20L42.36-2.49L42.36-3.74L45.28-4.09L45.33-4.09L45.74-3.75L45.74-3.16L45.73-2.79Q46.29-3.32 47.15-3.69Q48.02-4.06 48.97-4.06L48.97-4.06Q49.93-4.06 50.49-3.71Q51.04-3.37 51.29-2.61Q51.54-1.86 51.54-0.56L51.54-0.56L51.54 3.84L52.44 3.97L52.44 5.04L48.07 5.04L48.07 3.98L48.86 3.84L48.86-0.54Q48.86-1.31 48.75-1.74Q48.65-2.16 48.39-2.36Q48.13-2.55 47.65-2.55L47.65-2.55Q46.91-2.55 45.98-1.86L45.98-1.86L45.98 3.84L46.87 3.98L46.87 5.04L42.42 5.04L42.42 3.98L43.30 3.84Z"/><path fill="#FF9800" opacity="1" d="M55.10 2.44L55.50 3.71Q55.61 3.89 56.02 4.03Q56.43 4.18 56.85 4.18L56.85 4.18Q57.51 4.18 57.85 3.89Q58.20 3.61 58.20 3.16L58.20 3.16Q58.20 2.68 57.75 2.37Q57.30 2.06 56.27 1.61L56.27 1.61L55.66 1.33Q54.62 0.87 54.10 0.20Q53.57-0.46 53.57-1.49L53.57-1.49Q53.57-2.23 54.01-2.81Q54.44-3.40 55.26-3.74Q56.08-4.07 57.19-4.07L57.19-4.07Q57.96-4.07 58.52-3.98Q59.08-3.88 59.66-3.74L59.66-3.74Q60.04-3.63 60.24-3.61L60.24-3.61L60.24-1.43L58.81-1.43L58.39-2.66Q58.31-2.81 58.00-2.93Q57.70-3.05 57.31-3.05L57.31-3.05Q56.70-3.05 56.35-2.78Q56.00-2.52 56.00-2.07L56.00-2.07Q56.00-1.55 56.40-1.26Q56.80-0.96 57.68-0.56L57.68-0.56L58.02-0.42Q59.32 0.13 60.06 0.76Q60.80 1.40 60.80 2.51L60.80 2.51Q60.80 3.69 59.85 4.46Q58.90 5.22 57.06 5.22L57.06 5.22Q56.21 5.22 55.55 5.08Q54.89 4.95 54.10 4.72L54.10 4.72L53.57 4.58L53.57 2.44L55.10 2.44Z"/><path fill="#FF9800" opacity="1" d="M63.93-5.26Q63.30-5.26 62.92-5.63Q62.53-6.00 62.53-6.58L62.53-6.58Q62.53-7.25 62.96-7.69Q63.38-8.12 64.10-8.12L64.10-8.12Q64.83-8.12 65.21-7.75Q65.60-7.38 65.60-6.80L65.60-6.80Q65.60-6.11 65.16-5.69Q64.73-5.26 63.94-5.26L63.94-5.26L63.93-5.26ZM62.95 3.84L62.95-2.20L61.87-2.50L61.87-3.71L65.08-4.09L65.11-4.09L65.61-3.75L65.61 3.84L66.58 3.98L66.58 5.04L61.95 5.04L61.95 3.98L62.95 3.84Z"/><path fill="#FF9800" opacity="1" d="M67.02-6.80L67.02-7.73L70.19-8.12L70.22-8.12L70.73-7.80L70.73-3.11Q71.15-3.54 71.76-3.83Q72.37-4.11 73.06-4.11L73.06-4.11Q74.60-4.11 75.56-3.02Q76.51-1.94 76.51 0.29L76.51 0.29Q76.51 1.69 75.92 2.81Q75.34 3.93 74.25 4.58Q73.16 5.22 71.70 5.22L71.70 5.22Q70.32 5.22 69.38 5.00Q68.45 4.79 68.16 4.61L68.16 4.61L68.16-6.59L67.02-6.80ZM72.06-2.53Q71.66-2.53 71.31-2.36Q70.96-2.18 70.73-1.94L70.73-1.94L70.73 3.87Q70.80 4.03 71.09 4.13Q71.39 4.22 71.78 4.22L71.78 4.22Q72.67 4.22 73.20 3.28Q73.73 2.33 73.73 0.48L73.73 0.48Q73.73-1.07 73.28-1.80Q72.83-2.53 72.06-2.53L72.06-2.53Z"/><path fill="#FF9800" opacity="1" d="M79.67-5.26Q79.05-5.26 78.66-5.63Q78.28-6.00 78.28-6.58L78.28-6.58Q78.28-7.25 78.70-7.69Q79.13-8.12 79.85-8.12L79.85-8.12Q80.57-8.12 80.96-7.75Q81.34-7.38 81.34-6.80L81.34-6.80Q81.34-6.11 80.91-5.69Q80.47-5.26 79.69-5.26L79.69-5.26L79.67-5.26ZM78.69 3.84L78.69-2.20L77.62-2.50L77.62-3.71L80.83-4.09L80.86-4.09L81.36-3.75L81.36 3.84L82.32 3.98L82.32 5.04L77.70 5.04L77.70 3.98L78.69 3.84Z"/><path fill="#FF9800" opacity="1" d="M84.26 3.84L84.26-6.55L83.14-6.75L83.14-7.73L86.35-8.12L86.40-8.12L86.86-7.78L86.86 3.84L87.91 3.98L87.91 5.04L83.24 5.04L83.24 3.98L84.26 3.84Z"/><path fill="#FF9800" opacity="1" d="M90.91-5.26Q90.28-5.26 89.90-5.63Q89.51-6.00 89.51-6.58L89.51-6.58Q89.51-7.25 89.94-7.69Q90.36-8.12 91.08-8.12L91.08-8.12Q91.81-8.12 92.19-7.75Q92.58-7.38 92.58-6.80L92.58-6.80Q92.58-6.11 92.14-5.69Q91.71-5.26 90.92-5.26L90.92-5.26L90.91-5.26ZM89.93 3.84L89.93-2.20L88.85-2.50L88.85-3.71L92.06-4.09L92.09-4.09L92.59-3.75L92.59 3.84L93.56 3.98L93.56 5.04L88.93 5.04L88.93 3.98L89.93 3.84Z"/><path fill="#FF9800" opacity="1" d="M97.38 5.19Q96.32 5.19 95.81 4.70Q95.30 4.21 95.30 3.18L95.30 3.18L95.30-2.53L94.33-2.53L94.33-3.46L94.65-3.59Q95.03-3.72 95.32-3.87L95.32-3.87Q95.64-4.17 95.83-4.67L95.83-4.67Q96.08-5.25 96.36-6.29L96.36-6.29L97.86-6.29L97.95-3.88L100.25-3.88L100.25-2.53L97.99-2.53L97.99 1.72Q97.99 2.60 98.03 2.96Q98.08 3.31 98.22 3.41Q98.35 3.52 98.72 3.52L98.72 3.52Q99.48 3.52 100.15 3.26L100.15 3.26L100.49 4.27Q100.04 4.64 99.16 4.91Q98.27 5.19 97.38 5.19L97.38 5.19Z"/><path fill="#FF9800" opacity="1" d="M102.78 9.04Q102.45 9.04 102.09 8.99Q101.72 8.94 101.56 8.86L101.56 8.86L101.56 6.94Q101.68 7.02 102.05 7.09Q102.42 7.16 102.72 7.16L102.72 7.16Q103.54 7.16 104.02 6.65Q104.50 6.13 104.90 5.04L104.90 5.04L103.97 5.04L100.97-2.66L100.26-2.85L100.26-3.88L105.00-3.88L105.00-2.85L103.88-2.66L105.21 1.61L105.69 3.23L106.07 1.61L107.31-2.68L106.35-2.85L106.35-3.88L109.97-3.88L109.97-2.85L109.20-2.68Q108.53-0.61 107.56 2.19Q106.59 4.98 106.48 5.23L106.48 5.23Q105.99 6.57 105.50 7.38Q105.02 8.19 104.36 8.61Q103.70 9.04 102.78 9.04L102.78 9.04Z"/></g></svg>
