<?xml version="1.0" encoding="UTF-8" standalone="no"?>
<!DOCTYPE svg PUBLIC "-//W3C//DTD SVG 1.1//EN" "http://www.w3.org/Graphics/SVG/1.1/DTD/svg11.dtd">
<svg xmlns="http://www.w3.org/2000/svg" xmlns:xlink="http://www.w3.org/1999/xlink" version="1.1" width="500" height="500" viewBox="0 0 500 500" xml:space="preserve">
<desc>Created with Fabric.js 3.6.3</desc>
<defs>
</defs>
<g transform="matrix(1 0 0 1 250 250)">
<rect style="stroke: none; stroke-width: 1; stroke-dasharray: none; stroke-linecap: butt; stroke-dashoffset: 0; stroke-linejoin: miter; stroke-miterlimit: 4; fill: rgb(255,255,255); fill-rule: nonzero; opacity: 1;" x="-250" y="-250" rx="0" ry="0" width="500" height="500"/>
</g>
<g transform="matrix(1.5764641885943937 0.04179584444520588 -0.040499762997108384 1.5275783240892329 86.22616059203351 224.67397098970787)">
<path style="stroke: none; stroke-width: 0; stroke-dasharray: none; stroke-linecap: butt; stroke-dashoffset: 0; stroke-linejoin: miter; stroke-miterlimit: 4; fill: rgb(255,255,255); fill-rule: evenodd; opacity: 1;" transform=" translate(-50.00156999999999, -50.000730000000004)" d="m 66.645 66.645 c -9.1914 9.1914 -24.098 9.1914 -33.289 0 c -9.1914 -9.1914 -9.1914 -24.098 0 -33.289 c 9.1914 -9.1914 24.098 -9.1914 33.289 0 c 9.1914 9.1914 9.1914 24.098 0 33.289 z m -16.645 4.168 c 11.492 0 20.812 -9.3164 20.812 -20.812 c 0 -11.492 -9.3164 -20.812 -20.812 -20.812 c -11.492 0 -20.812 9.3164 -20.812 20.812 c 0 11.492 9.3164 20.812 20.812 20.812 z m -34.434 -28.824 h -6.0352 c -0.34766 0 -0.69922 0.13281 -0.96484 0.39844 l -3.1562 3.1562 c -0.25 0.24609 -0.40625 0.58984 -0.40625 0.97266 v 6.9688 c 0 0.34766 0.13281 0.69922 0.39844 0.96484 l 3.1562 3.1562 c 0.24609 0.25 0.58984 0.40625 0.97266 0.40625 h 6.0352 c 0.87891 3.7891 2.375 7.3789 4.4219 10.664 l -4.2656 4.2656 c -0.25 0.24609 -0.40625 0.58984 -0.40625 0.97266 v 4.4766 c 0 0.34766 0.13281 0.69922 0.39844 0.96484 l 4.9219 4.9219 c 0.24609 0.25 0.58984 0.40625 0.97266 0.40625 h 4.4766 c 0.34766 0 0.69922 -0.13281 0.96484 -0.39844 l 4.2734 -4.2734 c 3.2852 2.0508 6.875 3.543 10.664 4.4219 v 6.0352 c 0 0.34766 0.13281 0.69922 0.39844 0.96484 l 3.1602 3.1562 c 0.24609 0.25 0.58984 0.40625 0.97266 0.40625 h 6.9688 c 0.34766 0 0.69922 -0.13281 0.96484 -0.39844 l 3.1562 -3.1562 c 0.25 -0.24609 0.40625 -0.58984 0.40625 -0.97266 v -6.0352 c 3.7891 -0.87891 7.3789 -2.375 10.664 -4.4219 l 4.2773 4.2695 c 0.24609 0.24609 0.58594 0.39844 0.96094 0.39844 h 4.3594 c 0.38672 0.03125 0.78516 -0.097657 1.082 -0.39453 l 4.9219 -4.9219 c 0.25 -0.24609 0.40625 -0.58984 0.40625 -0.97266 v -4.4766 c 0 -0.34766 -0.13281 -0.69922 -0.39844 -0.96484 l -4.2734 -4.2734 c 2.0508 -3.2852 3.543 -6.875 4.4219 -10.664 h 6.0352 c 0.34766 0 0.69922 -0.13281 0.96484 -0.39844 l 3.1562 -3.1562 c 0.25 -0.24609 0.40625 -0.58984 0.40625 -0.97266 v -6.9688 c 0 -0.34766 -0.13281 -0.69922 -0.39844 -0.96484 l -3.1562 -3.1562 c -0.24609 -0.25 -0.58984 -0.40625 -0.97266 -0.40625 h -6.0352 c -0.87891 -3.7891 -2.375 -7.3789 -4.4219 -10.664 l 4.2695 -4.2773 c 0.24609 -0.24609 0.39844 -0.58594 0.39844 -0.96094 v -4.3594 c 0.03125 -0.38672 -0.097656 -0.78516 -0.39453 -1.082 l -4.9219 -4.9219 c -0.24609 -0.25 -0.58984 -0.40625 -0.97266 -0.40625 h -4.4766 c -0.34766 0 -0.69922 0.13281 -0.96484 0.39844 l -4.2734 4.2734 c -3.2852 -2.0508 -6.875 -3.543 -10.664 -4.4219 v -6.0352 c 0 -0.34766 -0.13281 -0.69922 -0.39844 -0.96484 l -3.1562 -3.1562 c -0.24609 -0.25 -0.58984 -0.40625 -0.97266 -0.40625 h -6.9688 c -0.34766 0 -0.69922 0.13281 -0.96484 0.39844 l -3.1562 3.1562 c -0.25 0.24609 -0.40625 0.58984 -0.40625 0.97266 v 6.0352 c -3.7891 0.87891 -7.3789 2.375 -10.664 4.4219 l -4.2656 -4.2656 c -0.24609 -0.25 -0.58984 -0.40625 -0.97266 -0.40625 h -4.4766 c -0.34766 0 -0.69922 0.13281 -0.96484 0.39844 l -4.9219 4.9219 c -0.25 0.24609 -0.40625 0.58984 -0.40625 0.97266 v 4.4766 c 0 0.34766 0.13281 0.69922 0.39844 0.96484 l 4.2734 4.2734 c -2.0508 3.2852 -3.543 6.875 -4.4219 10.664 z m 7.2344 -10.008 c -1.1484 1.7305 -2.1406 3.5859 -2.9492 5.5391 c -0.79687 1.9219 -1.4141 3.9414 -1.8359 6.0352 c -0.097656 0.65625 -0.66406 1.1602 -1.3477 1.1602 h -6.5703 l -2.3672 2.3672 v 5.8398 l 2.3672 2.3672 h 6.5703 c 0.68359 0 1.25 0.50391 1.3477 1.1602 c 0.41797 2.0938 1.0391 4.1094 1.8359 6.0352 c 0.80859 1.9531 1.8008 3.8086 2.9492 5.5391 c 0.42578 0.53516 0.38672 1.3164 -0.10547 1.8086 l -4.6484 4.6484 v 3.3477 l 4.1289 4.1289 h 3.3477 l 4.6484 -4.6484 c 0.49219 -0.49219 1.2734 -0.53125 1.8086 -0.10547 c 1.7305 1.1484 3.5859 2.1406 5.5391 2.9492 c 1.9219 0.79688 3.9414 1.4141 6.0352 1.8359 c 0.65625 0.097657 1.1602 0.66406 1.1602 1.3477 v 6.5703 l 2.3672 2.3672 h 5.8398 l 2.3672 -2.3672 v -6.5703 c 0 -0.68359 0.50391 -1.25 1.1602 -1.3477 c 2.0938 -0.41797 4.1094 -1.0391 6.0352 -1.8359 c 1.957 -0.8125 3.8086 -1.8008 5.5391 -2.9492 c 0.53516 -0.42188 1.3125 -0.38672 1.8086 0.10547 l 4.6523 4.6523 h 3.3359 l 4.1328 -4.1328 v -3.3477 l -4.6484 -4.6484 c -0.49219 -0.49219 -0.53125 -1.2734 -0.10547 -1.8086 c 1.1484 -1.7305 2.1406 -3.5859 2.9492 -5.5391 c 0.79687 -1.9219 1.4141 -3.9414 1.8359 -6.0352 c 0.097656 -0.65625 0.66406 -1.1602 1.3477 -1.1602 h 6.5703 l 2.3672 -2.3672 v -5.8398 l -2.3672 -2.3672 h -6.5703 c -0.68359 0 -1.25 -0.50391 -1.3477 -1.1602 c -0.41797 -2.0938 -1.0352 -4.1094 -1.8359 -6.0352 c -0.8125 -1.957 -1.8008 -3.8086 -2.9492 -5.5391 c -0.42188 -0.53516 -0.38672 -1.3125 0.10547 -1.8086 l 4.6523 -4.6523 v -3.3359 s -4.1328 -4.1328 -4.1328 -4.1328 h -3.3477 l -4.6484 4.6484 c -0.49219 0.49219 -1.2734 0.53125 -1.8086 0.10547 c -1.7305 -1.1484 -3.5859 -2.1406 -5.5391 -2.9492 c -1.9219 -0.79688 -3.9414 -1.4141 -6.0352 -1.8359 c -0.65625 -0.097656 -1.1602 -0.66406 -1.1602 -1.3477 v -6.5703 l -2.3672 -2.3672 h -5.8398 l -2.3672 2.3672 v 6.5703 c 0 0.68359 -0.50391 1.25 -1.1602 1.3477 c -2.0938 0.41797 -4.1094 1.0352 -6.0352 1.8359 c -1.957 0.8125 -3.8086 1.8008 -5.5391 2.9492 c -0.53516 0.42187 -1.3125 0.38672 -1.8086 -0.10547 l -4.6484 -4.6484 h -3.3477 l -4.1289 4.1289 v 3.3477 l 4.6484 4.6484 c 0.49219 0.49219 0.53125 1.2734 0.10547 1.8086 z" stroke-linecap="round"/>
</g>
<g transform="matrix(1.6026300566796183 0.04248956432807806 -0.041171970754019134 1.5529327934182229 83.01850058941999 223.50190371759976)">
<path style="stroke: none; stroke-width: 0; stroke-dasharray: none; stroke-linecap: butt; stroke-dashoffset: 0; stroke-linejoin: miter; stroke-miterlimit: 4; fill: rgb(255,255,255); fill-rule: evenodd; opacity: 1;" transform=" translate(-50.00156999999999, -50.000730000000004)" d="m 66.645 66.645 c -9.1914 9.1914 -24.098 9.1914 -33.289 0 c -9.1914 -9.1914 -9.1914 -24.098 0 -33.289 c 9.1914 -9.1914 24.098 -9.1914 33.289 0 c 9.1914 9.1914 9.1914 24.098 0 33.289 z m -16.645 4.168 c 11.492 0 20.812 -9.3164 20.812 -20.812 c 0 -11.492 -9.3164 -20.812 -20.812 -20.812 c -11.492 0 -20.812 9.3164 -20.812 20.812 c 0 11.492 9.3164 20.812 20.812 20.812 z m -34.434 -28.824 h -6.0352 c -0.34766 0 -0.69922 0.13281 -0.96484 0.39844 l -3.1562 3.1562 c -0.25 0.24609 -0.40625 0.58984 -0.40625 0.97266 v 6.9688 c 0 0.34766 0.13281 0.69922 0.39844 0.96484 l 3.1562 3.1562 c 0.24609 0.25 0.58984 0.40625 0.97266 0.40625 h 6.0352 c 0.87891 3.7891 2.375 7.3789 4.4219 10.664 l -4.2656 4.2656 c -0.25 0.24609 -0.40625 0.58984 -0.40625 0.97266 v 4.4766 c 0 0.34766 0.13281 0.69922 0.39844 0.96484 l 4.9219 4.9219 c 0.24609 0.25 0.58984 0.40625 0.97266 0.40625 h 4.4766 c 0.34766 0 0.69922 -0.13281 0.96484 -0.39844 l 4.2734 -4.2734 c 3.2852 2.0508 6.875 3.543 10.664 4.4219 v 6.0352 c 0 0.34766 0.13281 0.69922 0.39844 0.96484 l 3.1602 3.1562 c 0.24609 0.25 0.58984 0.40625 0.97266 0.40625 h 6.9688 c 0.34766 0 0.69922 -0.13281 0.96484 -0.39844 l 3.1562 -3.1562 c 0.25 -0.24609 0.40625 -0.58984 0.40625 -0.97266 v -6.0352 c 3.7891 -0.87891 7.3789 -2.375 10.664 -4.4219 l 4.2773 4.2695 c 0.24609 0.24609 0.58594 0.39844 0.96094 0.39844 h 4.3594 c 0.38672 0.03125 0.78516 -0.097657 1.082 -0.39453 l 4.9219 -4.9219 c 0.25 -0.24609 0.40625 -0.58984 0.40625 -0.97266 v -4.4766 c 0 -0.34766 -0.13281 -0.69922 -0.39844 -0.96484 l -4.2734 -4.2734 c 2.0508 -3.2852 3.543 -6.875 4.4219 -10.664 h 6.0352 c 0.34766 0 0.69922 -0.13281 0.96484 -0.39844 l 3.1562 -3.1562 c 0.25 -0.24609 0.40625 -0.58984 0.40625 -0.97266 v -6.9688 c 0 -0.34766 -0.13281 -0.69922 -0.39844 -0.96484 l -3.1562 -3.1562 c -0.24609 -0.25 -0.58984 -0.40625 -0.97266 -0.40625 h -6.0352 c -0.87891 -3.7891 -2.375 -7.3789 -4.4219 -10.664 l 4.2695 -4.2773 c 0.24609 -0.24609 0.39844 -0.58594 0.39844 -0.96094 v -4.3594 c 0.03125 -0.38672 -0.097656 -0.78516 -0.39453 -1.082 l -4.9219 -4.9219 c -0.24609 -0.25 -0.58984 -0.40625 -0.97266 -0.40625 h -4.4766 c -0.34766 0 -0.69922 0.13281 -0.96484 0.39844 l -4.2734 4.2734 c -3.2852 -2.0508 -6.875 -3.543 -10.664 -4.4219 v -6.0352 c 0 -0.34766 -0.13281 -0.69922 -0.39844 -0.96484 l -3.1562 -3.1562 c -0.24609 -0.25 -0.58984 -0.40625 -0.97266 -0.40625 h -6.9688 c -0.34766 0 -0.69922 0.13281 -0.96484 0.39844 l -3.1562 3.1562 c -0.25 0.24609 -0.40625 0.58984 -0.40625 0.97266 v 6.0352 c -3.7891 0.87891 -7.3789 2.375 -10.664 4.4219 l -4.2656 -4.2656 c -0.24609 -0.25 -0.58984 -0.40625 -0.97266 -0.40625 h -4.4766 c -0.34766 0 -0.69922 0.13281 -0.96484 0.39844 l -4.9219 4.9219 c -0.25 0.24609 -0.40625 0.58984 -0.40625 0.97266 v 4.4766 c 0 0.34766 0.13281 0.69922 0.39844 0.96484 l 4.2734 4.2734 c -2.0508 3.2852 -3.543 6.875 -4.4219 10.664 z m 7.2344 -10.008 c -1.1484 1.7305 -2.1406 3.5859 -2.9492 5.5391 c -0.79687 1.9219 -1.4141 3.9414 -1.8359 6.0352 c -0.097656 0.65625 -0.66406 1.1602 -1.3477 1.1602 h -6.5703 l -2.3672 2.3672 v 5.8398 l 2.3672 2.3672 h 6.5703 c 0.68359 0 1.25 0.50391 1.3477 1.1602 c 0.41797 2.0938 1.0391 4.1094 1.8359 6.0352 c 0.80859 1.9531 1.8008 3.8086 2.9492 5.5391 c 0.42578 0.53516 0.38672 1.3164 -0.10547 1.8086 l -4.6484 4.6484 v 3.3477 l 4.1289 4.1289 h 3.3477 l 4.6484 -4.6484 c 0.49219 -0.49219 1.2734 -0.53125 1.8086 -0.10547 c 1.7305 1.1484 3.5859 2.1406 5.5391 2.9492 c 1.9219 0.79688 3.9414 1.4141 6.0352 1.8359 c 0.65625 0.097657 1.1602 0.66406 1.1602 1.3477 v 6.5703 l 2.3672 2.3672 h 5.8398 l 2.3672 -2.3672 v -6.5703 c 0 -0.68359 0.50391 -1.25 1.1602 -1.3477 c 2.0938 -0.41797 4.1094 -1.0391 6.0352 -1.8359 c 1.957 -0.8125 3.8086 -1.8008 5.5391 -2.9492 c 0.53516 -0.42188 1.3125 -0.38672 1.8086 0.10547 l 4.6523 4.6523 h 3.3359 l 4.1328 -4.1328 v -3.3477 l -4.6484 -4.6484 c -0.49219 -0.49219 -0.53125 -1.2734 -0.10547 -1.8086 c 1.1484 -1.7305 2.1406 -3.5859 2.9492 -5.5391 c 0.79687 -1.9219 1.4141 -3.9414 1.8359 -6.0352 c 0.097656 -0.65625 0.66406 -1.1602 1.3477 -1.1602 h 6.5703 l 2.3672 -2.3672 v -5.8398 l -2.3672 -2.3672 h -6.5703 c -0.68359 0 -1.25 -0.50391 -1.3477 -1.1602 c -0.41797 -2.0938 -1.0352 -4.1094 -1.8359 -6.0352 c -0.8125 -1.957 -1.8008 -3.8086 -2.9492 -5.5391 c -0.42188 -0.53516 -0.38672 -1.3125 0.10547 -1.8086 l 4.6523 -4.6523 v -3.3359 s -4.1328 -4.1328 -4.1328 -4.1328 h -3.3477 l -4.6484 4.6484 c -0.49219 0.49219 -1.2734 0.53125 -1.8086 0.10547 c -1.7305 -1.1484 -3.5859 -2.1406 -5.5391 -2.9492 c -1.9219 -0.79688 -3.9414 -1.4141 -6.0352 -1.8359 c -0.65625 -0.097656 -1.1602 -0.66406 -1.1602 -1.3477 v -6.5703 l -2.3672 -2.3672 h -5.8398 l -2.3672 2.3672 v 6.5703 c 0 0.68359 -0.50391 1.25 -1.1602 1.3477 c -2.0938 0.41797 -4.1094 1.0352 -6.0352 1.8359 c -1.957 0.8125 -3.8086 1.8008 -5.5391 2.9492 c -0.53516 0.42187 -1.3125 0.38672 -1.8086 -0.10547 l -4.6484 -4.6484 h -3.3477 l -4.1289 4.1289 v 3.3477 l 4.6484 4.6484 c 0.49219 0.49219 0.53125 1.2734 0.10547 1.8086 z" stroke-linecap="round"/>
</g>
<g transform="matrix(1 0 0 1 333.18249812685383 219.6986932650934)" style=""><path fill="#ffffff" opacity="1" d="M-157.38-10.12L-157.38-37.53L-160.91-38.19L-160.91-41.49L-153.47-41.49Q-151.87-41.49-149.23-41.68L-149.23-41.68Q-148.67-41.72-147.82-41.77Q-146.97-41.82-145.84-41.82L-145.84-41.82Q-140.71-41.82-137.79-40.88Q-134.87-39.93-133.71-38.19Q-132.56-36.45-132.56-33.81L-132.56-33.81Q-132.56-30.28-134.75-27.97Q-136.94-25.66-140.33-25.19L-140.33-25.19Q-135.62-25.19-132.91-23.07Q-130.20-20.95-130.20-17.09L-130.20-17.09Q-130.20-12.05-133.67-9.13Q-137.13-6.21-145.42-6.21L-145.42-6.21Q-146.74-6.21-147.96-6.28Q-149.19-6.35-149.70-6.35L-149.70-6.35Q-151.40-6.49-153.38-6.49L-153.38-6.49L-161.01-6.49L-161.01-9.60L-157.38-10.12ZM-149.42-26.37Q-148.57-26.28-145.61-26.28L-145.61-26.28Q-143.02-26.28-141.79-28.04Q-140.57-29.81-140.57-33.01L-140.57-33.01Q-140.57-35.98-141.89-37.34Q-143.20-38.71-146.17-38.71L-146.17-38.71Q-146.88-38.71-147.82-38.64Q-148.76-38.57-149.42-38.47L-149.42-38.47L-149.42-26.37ZM-149.42-9.84Q-148.48-9.46-145.70-9.46L-145.70-9.46Q-142.22-9.46-140.64-11.30Q-139.06-13.13-139.06-16.62L-139.06-16.62Q-139.06-19.92-140.52-21.33Q-141.98-22.74-145.14-22.74L-145.14-22.74Q-147.73-22.74-149.42-22.65L-149.42-22.65L-149.42-9.84Z"/><path fill="#ffffff" opacity="1" d="M-127.52-14.03Q-127.52-18.17-123.30-20.39Q-119.09-22.60-112.21-22.65L-112.21-22.65L-112.21-23.59Q-112.21-25.29-112.59-26.28Q-112.97-27.26-113.96-27.76Q-114.94-28.25-116.88-28.25L-116.88-28.25Q-119.18-28.25-121.00-27.71Q-122.81-27.17-124.79-26.28L-124.79-26.28L-126.39-29.67Q-125.64-30.28-123.94-31.15Q-122.24-32.02-119.87-32.66Q-117.49-33.29-114.90-33.29L-114.90-33.29Q-111.13-33.29-108.99-32.30Q-106.84-31.31-105.92-29.24Q-105.01-27.17-105.01-23.59L-105.01-23.59L-105.01-9.60L-102.56-9.60L-102.56-6.63Q-103.64-6.40-105.57-6.16Q-107.50-5.93-108.87-5.93L-108.87-5.93Q-110.66-5.93-111.25-6.45Q-111.84-6.96-111.84-8.52L-111.84-8.52L-111.84-9.60Q-113.01-8.19-114.99-7.08Q-116.97-5.98-119.56-5.98L-119.56-5.98Q-121.77-5.98-123.59-6.94Q-125.40-7.91-126.46-9.72Q-127.52-11.53-127.52-14.03L-127.52-14.03ZM-115.89-10.31Q-115.04-10.31-114.00-10.80Q-112.97-11.30-112.21-12.00L-112.21-12.00L-112.21-19.49Q-115.89-19.49-117.65-18.17Q-119.42-16.86-119.42-14.78L-119.42-14.78Q-119.42-12.66-118.48-11.49Q-117.53-10.31-115.89-10.31L-115.89-10.31Z"/><path fill="#ffffff" opacity="1" d="M-92.05-6.07Q-95.16-6.07-96.65-7.51Q-98.13-8.94-98.13-11.96L-98.13-11.96L-98.13-28.72L-101.00-28.72L-101.00-31.46L-100.06-31.83Q-98.93-32.21-98.08-32.63L-98.08-32.63Q-97.14-33.53-96.58-34.99L-96.58-34.99Q-95.87-36.68-95.02-39.75L-95.02-39.75L-90.64-39.75L-90.36-32.68L-83.62-32.68L-83.62-28.72L-90.26-28.72L-90.26-16.24Q-90.26-13.65-90.12-12.62Q-89.98-11.58-89.58-11.27Q-89.18-10.97-88.10-10.97L-88.10-10.97Q-85.88-10.97-83.91-11.72L-83.91-11.72L-82.92-8.75Q-84.24-7.67-86.83-6.87Q-89.42-6.07-92.05-6.07L-92.05-6.07Z"/><path fill="#ffffff" opacity="1" d="M-72.84-6.07Q-75.95-6.07-77.43-7.51Q-78.91-8.94-78.91-11.96L-78.91-11.96L-78.91-28.72L-81.79-28.72L-81.79-31.46L-80.84-31.83Q-79.71-32.21-78.87-32.63L-78.87-32.63Q-77.92-33.53-77.36-34.99L-77.36-34.99Q-76.65-36.68-75.80-39.75L-75.80-39.75L-71.42-39.75L-71.14-32.68L-64.41-32.68L-64.41-28.72L-71.05-28.72L-71.05-16.24Q-71.05-13.65-70.91-12.62Q-70.76-11.58-70.36-11.27Q-69.96-10.97-68.88-10.97L-68.88-10.97Q-66.67-10.97-64.69-11.72L-64.69-11.72L-63.70-8.75Q-65.02-7.67-67.61-6.87Q-70.20-6.07-72.84-6.07L-72.84-6.07Z"/><path fill="#ffffff" opacity="1" d="M-64.41-29.67L-64.41-32.63L-51.50-32.63L-51.50-29.67L-54.66-29.15L-51.45-17.42L-50.46-12.76L-49.62-17.42L-45.57-32.63L-39.21-32.63L-34.54-17.42L-33.56-12.80L-32.61-17.42L-29.65-29.10L-33.04-29.67L-33.04-32.63L-22.68-32.63L-22.68-29.67L-24.94-29.15L-32.05-6.12L-38.03-6.12L-42.69-20.53L-43.68-25.99L-44.39-20.53L-48.58-6.12L-54.70-6.12L-62.19-29.15L-64.41-29.67Z"/><path fill="#ffffff" opacity="1" d="M-19.85-10.03L-19.85-40.50L-23.19-41.11L-23.19-43.98L-13.73-45.12L-13.59-45.12L-12.22-44.13L-12.17-33.91L-12.55-29.71Q-11.09-31.08-8.69-32.14Q-6.28-33.20-3.41-33.20L-3.41-33.20Q-0.44-33.20 1.20-32.12Q2.85-31.03 3.51-28.82Q4.17-26.60 4.17-22.93L4.17-22.93L4.17-10.03L7.04-9.60L7.04-6.49L-6.05-6.49L-6.05-9.60L-3.55-10.03L-3.55-22.88Q-3.55-26.18-4.26-27.48Q-4.97-28.77-7.13-28.77L-7.13-28.77Q-8.45-28.77-9.77-28.18Q-11.09-27.59-11.98-26.75L-11.98-26.75L-11.98-10.03L-9.39-9.60L-9.39-6.49L-22.30-6.49L-22.30-9.60L-19.85-10.03Z"/><path fill="#ffffff" opacity="1" d="M22.07-5.98Q15.62-5.98 12.51-9.63Q9.40-13.28 9.40-19.59L9.40-19.59Q9.40-23.87 11.00-26.98Q12.60-30.09 15.50-31.72Q18.40-33.34 22.31-33.34L22.31-33.34Q27.25-33.34 29.86-30.84Q32.48-28.35 32.57-23.78L32.57-23.78Q32.57-20.76 32.15-18.93L32.15-18.93L17.41-18.93Q17.64-14.92 19.36-12.83Q21.08-10.73 24.19-10.73L24.19-10.73Q25.93-10.73 27.84-11.32Q29.75-11.91 30.92-12.66L30.92-12.66L32.24-9.79Q31.02-8.42 28.07-7.20Q25.13-5.98 22.07-5.98L22.07-5.98ZM17.36-22.04L25.08-22.04L25.13-24.01Q25.13-26.98 24.33-28.54Q23.53-30.09 21.60-30.09L21.60-30.09Q19.62-30.09 18.54-28.37Q17.45-26.65 17.36-22.04L17.36-22.04Z"/><path fill="#ffffff" opacity="1" d="M48.16-5.98Q41.71-5.98 38.60-9.63Q35.49-13.28 35.49-19.59L35.49-19.59Q35.49-23.87 37.09-26.98Q38.70-30.09 41.59-31.72Q44.49-33.34 48.40-33.34L48.40-33.34Q53.34-33.34 55.96-30.84Q58.57-28.35 58.67-23.78L58.67-23.78Q58.67-20.76 58.24-18.93L58.24-18.93L43.50-18.93Q43.74-14.92 45.45-12.83Q47.17-10.73 50.28-10.73L50.28-10.73Q52.03-10.73 53.93-11.32Q55.84-11.91 57.02-12.66L57.02-12.66L58.34-9.79Q57.11-8.42 54.17-7.20Q51.22-5.98 48.16-5.98L48.16-5.98ZM43.45-22.04L51.18-22.04L51.22-24.01Q51.22-26.98 50.42-28.54Q49.62-30.09 47.69-30.09L47.69-30.09Q45.71-30.09 44.63-28.37Q43.55-26.65 43.45-22.04L43.45-22.04Z"/><path fill="#ffffff" opacity="1" d="M64.55-10.03L64.55-40.50L61.26-41.11L61.26-43.98L70.68-45.12L70.82-45.12L72.18-44.13L72.18-10.03L75.25-9.60L75.25-6.49L61.54-6.49L61.54-9.60L64.55-10.03Z"/><path fill="#ffffff" opacity="1" d="M83.02-14.12L84.19-10.40Q84.52-9.88 85.73-9.46Q86.93-9.04 88.15-9.04L88.15-9.04Q90.08-9.04 91.09-9.86Q92.11-10.69 92.11-12.00L92.11-12.00Q92.11-13.42 90.79-14.34Q89.47-15.25 86.46-16.57L86.46-16.57L84.67-17.37Q81.60-18.74 80.07-20.69Q78.54-22.65 78.54-25.66L78.54-25.66Q78.54-27.83 79.81-29.55Q81.09-31.27 83.49-32.26Q85.89-33.25 89.14-33.25L89.14-33.25Q91.40-33.25 93.05-32.96Q94.70-32.68 96.39-32.26L96.39-32.26Q97.52-31.93 98.09-31.88L98.09-31.88L98.09-25.47L93.90-25.47L92.67-29.10Q92.44-29.53 91.54-29.88Q90.65-30.23 89.52-30.23L89.52-30.23Q87.73-30.23 86.69-29.45Q85.65-28.68 85.65-27.36L85.65-27.36Q85.65-25.85 86.83-24.98Q88.01-24.11 90.60-22.93L90.60-22.93L91.59-22.51Q95.40-20.91 97.57-19.05Q99.74-17.18 99.74-13.94L99.74-13.94Q99.74-10.45 96.96-8.21Q94.18-5.98 88.76-5.98L88.76-5.98Q86.27-5.98 84.34-6.38Q82.40-6.78 80.10-7.44L80.10-7.44L78.54-7.86L78.54-14.12L83.02-14.12Z"/><path fill="#ffffff" opacity="1" d="M-144.52 36.60Q-149.80 36.60-153.57 34.30Q-157.33 31.99-159.27 27.98Q-161.20 23.98-161.20 18.89L-161.20 18.89Q-161.20 13.05-158.98 8.96Q-156.77 4.86-152.65 2.76Q-148.53 0.67-142.87 0.67L-142.87 0.67Q-139.62 0.67-136.42 1.14Q-133.22 1.61-131.01 2.13L-131.01 2.13L-131.57 11.22L-137.22 11.22L-138.54 5.00Q-138.97 4.53-140.07 4.17Q-141.18 3.82-143.06 3.82L-143.06 3.82Q-147.25 3.82-149.56 7.52Q-151.87 11.22-151.87 18.23L-151.87 18.23Q-151.87 25.21-149.92 29.28Q-147.96 33.35-143.82 33.35L-143.82 33.35Q-142.12 33.35-140.73 32.91Q-139.34 32.46-138.64 31.75L-138.64 31.75L-138.64 21.91L-143.02 21.44L-143.02 18.00L-128.32 18.00L-128.32 21.44L-130.68 21.81L-130.68 34.20Q-131.48 34.25-134.40 34.95L-134.40 34.95Q-137.27 35.71-139.58 36.16Q-141.89 36.60-144.52 36.60L-144.52 36.60Z"/><path fill="#ffffff" opacity="1" d="M-126.11 28.55Q-126.11 24.40-121.89 22.19Q-117.68 19.98-110.80 19.93L-110.80 19.93L-110.80 18.99Q-110.80 17.29-111.18 16.30Q-111.55 15.31-112.54 14.82Q-113.53 14.32-115.46 14.32L-115.46 14.32Q-117.77 14.32-119.58 14.87Q-121.40 15.41-123.38 16.30L-123.38 16.30L-124.98 12.91Q-124.22 12.30-122.53 11.43Q-120.83 10.56-118.45 9.92Q-116.07 9.29-113.48 9.29L-113.48 9.29Q-109.72 9.29-107.57 10.27Q-105.43 11.26-104.51 13.34Q-103.59 15.41-103.59 18.99L-103.59 18.99L-103.59 32.98L-101.14 32.98L-101.14 35.94Q-102.23 36.18-104.16 36.41Q-106.09 36.65-107.46 36.65L-107.46 36.65Q-109.25 36.65-109.83 36.13Q-110.42 35.61-110.42 34.06L-110.42 34.06L-110.42 32.98Q-111.60 34.39-113.58 35.50Q-115.56 36.60-118.15 36.60L-118.15 36.60Q-120.36 36.60-122.17 35.64Q-123.99 34.67-125.05 32.86Q-126.11 31.05-126.11 28.55L-126.11 28.55ZM-114.47 32.27Q-113.63 32.27-112.59 31.78Q-111.55 31.28-110.80 30.57L-110.80 30.57L-110.80 23.09Q-114.47 23.09-116.24 24.40Q-118.01 25.72-118.01 27.80L-118.01 27.80Q-118.01 29.92-117.06 31.09Q-116.12 32.27-114.47 32.27L-114.47 32.27Z"/><path fill="#ffffff" opacity="1" d="M-98.55 36.09L-98.55 32.98L-95.68 32.55L-95.68 14.84L-98.46 14.00L-98.46 10.32L-90.64 9.29L-90.50 9.29L-89.18 10.27L-89.18 11.40L-89.32 15.31L-89.18 15.31Q-88.85 14.23-87.67 12.79Q-86.50 11.36-84.68 10.30Q-82.87 9.24-80.75 9.24L-80.75 9.24Q-79.53 9.24-78.87 9.57L-78.87 9.57L-78.87 17.76Q-79.62 17.20-80.49 16.87Q-81.36 16.54-82.73 16.54L-82.73 16.54Q-84.42 16.54-85.79 16.99Q-87.16 17.43-87.96 18.00L-87.96 18.00L-87.96 32.55L-82.78 33.02L-82.78 36.09L-98.55 36.09Z"/><path fill="#ffffff" opacity="1" d="M-76.65 28.55Q-76.65 24.40-72.44 22.19Q-68.22 19.98-61.34 19.93L-61.34 19.93L-61.34 18.99Q-61.34 17.29-61.72 16.30Q-62.10 15.31-63.09 14.82Q-64.08 14.32-66.01 14.32L-66.01 14.32Q-68.32 14.32-70.13 14.87Q-71.94 15.41-73.92 16.30L-73.92 16.30L-75.52 12.91Q-74.77 12.30-73.07 11.43Q-71.38 10.56-69.00 9.92Q-66.62 9.29-64.03 9.29L-64.03 9.29Q-60.26 9.29-58.12 10.27Q-55.98 11.26-55.06 13.34Q-54.14 15.41-54.14 18.99L-54.14 18.99L-54.14 32.98L-51.69 32.98L-51.69 35.94Q-52.77 36.18-54.70 36.41Q-56.63 36.65-58.00 36.65L-58.00 36.65Q-59.79 36.65-60.38 36.13Q-60.97 35.61-60.97 34.06L-60.97 34.06L-60.97 32.98Q-62.15 34.39-64.12 35.50Q-66.10 36.60-68.69 36.60L-68.69 36.60Q-70.91 36.60-72.72 35.64Q-74.53 34.67-75.59 32.86Q-76.65 31.05-76.65 28.55L-76.65 28.55ZM-65.02 32.27Q-64.17 32.27-63.13 31.78Q-62.10 31.28-61.34 30.57L-61.34 30.57L-61.34 23.09Q-65.02 23.09-66.78 24.40Q-68.55 25.72-68.55 27.80L-68.55 27.80Q-68.55 29.92-67.61 31.09Q-66.67 32.27-65.02 32.27L-65.02 32.27Z"/><path fill="#ffffff" opacity="1" d="M-37.51 48.80Q-44.01 48.80-46.91 46.78Q-49.81 44.75-49.81 41.36L-49.81 41.36Q-49.81 39.48-48.53 37.78Q-47.26 36.09-45.33 35.24L-45.33 35.24Q-47.54 33.97-47.54 31.19L-47.54 31.19Q-47.54 29.68-46.51 28.24Q-45.47 26.81-43.73 26.05L-43.73 26.05Q-48.96 24.12-48.96 18.05L-48.96 18.05Q-48.96 15.36-47.36 13.36Q-45.75 11.36-43.02 10.30Q-40.29 9.24-36.99 9.24L-36.99 9.24Q-31.11 9.24-28.37 11.40L-28.37 11.40Q-27.72 10.60-26.30 9.87Q-24.89 9.14-23.38 9.14L-23.38 9.14L-21.69 9.14L-21.69 14.89L-26.35 14.89Q-25.88 16.21-25.88 17.57L-25.88 17.57Q-25.88 21.91-28.94 24.45Q-32.00 26.99-37.65 26.99L-37.65 26.99Q-39.96 26.99-41.47 26.67L-41.47 26.67Q-41.75 27.23-41.92 27.84Q-42.08 28.45-42.08 28.83L-42.08 28.83Q-42.08 30.29-41.00 30.83Q-39.91 31.38-37.04 31.38L-37.04 31.38L-32.19 31.38Q-22.25 31.38-22.25 38.49L-22.25 38.49Q-22.25 41.60-24.42 43.95Q-26.58 46.31-30.09 47.55Q-33.60 48.80-37.51 48.80L-37.51 48.80ZM-37.18 23.79Q-35.20 23.79-34.33 22.31Q-33.46 20.82-33.46 18.05L-33.46 18.05Q-33.46 15.03-34.36 13.67Q-35.25 12.30-37.23 12.30L-37.23 12.30Q-41.23 12.30-41.23 17.86L-41.23 17.86Q-41.23 23.79-37.18 23.79L-37.18 23.79ZM-36.62 45.27Q-34.03 45.27-32.19 43.90Q-30.35 42.54-30.35 40.04L-30.35 40.04Q-30.35 38.06-31.34 37.24Q-32.33 36.41-34.83 36.41L-34.83 36.41L-39.63 36.41Q-40.39 36.41-41.33 36.32L-41.33 36.32Q-42.22 37.78-42.22 39.95L-42.22 39.95Q-42.22 45.27-36.62 45.27L-36.62 45.27Z"/><path fill="#ffffff" opacity="1" d="M-7.27 36.60Q-13.73 36.60-16.84 32.95Q-19.94 29.30-19.94 22.99L-19.94 22.99Q-19.94 18.71-18.34 15.60Q-16.74 12.49-13.84 10.86Q-10.95 9.24-7.04 9.24L-7.04 9.24Q-2.09 9.24 0.52 11.73Q3.14 14.23 3.23 18.80L3.23 18.80Q3.23 21.81 2.81 23.65L2.81 23.65L-11.94 23.65Q-11.70 27.65-9.98 29.75Q-8.26 31.85-5.15 31.85L-5.15 31.85Q-3.41 31.85-1.50 31.26Q0.40 30.67 1.58 29.92L1.58 29.92L2.90 32.79Q1.68 34.15-1.27 35.38Q-4.21 36.60-7.27 36.60L-7.27 36.60ZM-11.98 20.54L-4.26 20.54L-4.21 18.56Q-4.21 15.60-5.01 14.04Q-5.81 12.49-7.74 12.49L-7.74 12.49Q-9.72 12.49-10.81 14.21Q-11.89 15.93-11.98 20.54L-11.98 20.54Z"/><path fill="#ffffff" opacity="1" d="M11.38 28.45L12.56 32.18Q12.89 32.69 14.09 33.12Q15.29 33.54 16.51 33.54L16.51 33.54Q18.44 33.54 19.46 32.72Q20.47 31.89 20.47 30.57L20.47 30.57Q20.47 29.16 19.15 28.24Q17.83 27.32 14.82 26.01L14.82 26.01L13.03 25.21Q9.96 23.84 8.43 21.88Q6.90 19.93 6.90 16.92L6.90 16.92Q6.90 14.75 8.18 13.03Q9.45 11.31 11.85 10.32Q14.25 9.33 17.50 9.33L17.50 9.33Q19.76 9.33 21.41 9.61Q23.06 9.90 24.75 10.32L24.75 10.32Q25.88 10.65 26.45 10.70L26.45 10.70L26.45 17.10L22.26 17.10L21.03 13.48Q20.80 13.05 19.90 12.70Q19.01 12.35 17.88 12.35L17.88 12.35Q16.09 12.35 15.05 13.12Q14.02 13.90 14.02 15.22L14.02 15.22Q14.02 16.73 15.19 17.60Q16.37 18.47 18.96 19.65L18.96 19.65L19.95 20.07Q23.77 21.67 25.93 23.53Q28.10 25.39 28.10 28.64L28.10 28.64Q28.10 32.13 25.32 34.37Q22.54 36.60 17.12 36.60L17.12 36.60Q14.63 36.60 12.70 36.20Q10.77 35.80 8.46 35.14L8.46 35.14L6.90 34.72L6.90 28.45L11.38 28.45Z"/></g><g transform="matrix(1.2549756336442193 0 0 1.2549756336442193 100.20570286530275 240.48583498505224)">
<path style="stroke: none; stroke-width: 0; stroke-dasharray: none; stroke-linecap: butt; stroke-dashoffset: 0; stroke-linejoin: miter; stroke-miterlimit: 4; fill: rgb(255,255,255); fill-rule: nonzero; opacity: 1;" transform=" translate(-36.03075823566843, -36.016734409195294)" d="M 69 57.9 L 45.6 36.6 c -0.3 -0.3 -0.4 -0.7 -0.2 -1.1 c 4.8 -9 3.4 -20.4 -4.2 -28 c -9.9 -9.9 -26.4 -9.3 -35.5 2 c -6.8 8.5 -6.9 20.7 -0.3 29.3 c 3.3 4.2 7.6 7 12.2 8.4 c 0.4 0.1 0.6 0.4 0.6 0.8 l -0.5 17 c -0.1 3.4 2.6 6.5 5.9 6.5 c 3.5 0.1 6.4 -2.8 6.3 -6.3 l -0.5 -16.9 c 0 -0.4 0.2 -0.7 0.6 -0.8 c 1.9 -0.5 3.7 -1.1 5.5 -2.1 c 0.4 -0.2 0.8 -0.1 1.1 0.2 l 21.1 23.2 c 2.9 3.2 8 3.7 11.2 0.8 C 72.4 66.4 72.4 61 69 57.9 z M 23.7 67.7 c -1.7 0 -3 -1.4 -3 -3 c 0 -1.7 1.4 -3 3 -3 c 1.7 0 3 1.4 3 3 C 26.8 66.3 25.4 67.7 23.7 67.7 z M 37 34.7 c -1.9 2.3 -4.3 3.9 -6.8 4.9 c -0.5 0.2 -1.1 -0.2 -1.1 -0.7 l -0.1 -3.8 c 0 -0.4 0.2 -0.8 0.6 -1 c 3.3 -2 5.6 -5.6 5.6 -9.8 c 0 -4.8 -3 -8.9 -7.2 -10.6 c -0.4 -0.2 -0.8 0.2 -0.7 0.6 l 1.7 6.6 c 0.6 2.5 -0.6 5.3 -3.1 6.2 c -2.8 1 -5.8 -0.6 -6.6 -3.5 l -2 -7.7 c -0.1 -0.4 -0.6 -0.5 -0.9 -0.3 c -2.5 2.1 -4 5.2 -4 8.7 c 0 4.2 2.2 7.8 5.6 9.8 c 0.4 0.2 0.6 0.6 0.6 1 l -0.1 3.3 c 0 0.6 -0.6 1 -1.2 0.7 c -2 -0.9 -3.8 -2.3 -5.4 -4.1 c -5.3 -6.2 -5.2 -15.5 0.2 -21.6 c 6.8 -7.6 18.8 -7.3 25.2 0.9 C 41.9 20.3 41.8 28.9 37 34.7 z" stroke-linecap="round"/>
</g>
<g transform="matrix(1 0 0 1 298.2777034484659 279.0327457868256)" style=""><path fill="#ffffff" opacity="1" d="M-116.71 4.20L-116.71 0.29L-120.38-6.12L-121.35-6.35L-121.35-7.59L-115.78-7.59L-115.78-6.35L-116.93-6.10L-114.91-2.05L-114.47-0.90L-114.01-2.05L-112.18-6.10L-113.53-6.35L-113.53-7.59L-109.01-7.59L-109.01-6.35L-110.09-6.16L-113.49 0.27L-113.49 4.20L-111.62 4.39L-111.62 5.56L-118.54 5.56L-118.54 4.39L-116.71 4.20Z"/><path fill="#ffffff" opacity="1" d="M-108.61 0.69Q-108.61-1.01-107.93-2.18Q-107.26-3.36-106.12-3.94Q-104.98-4.53-103.62-4.53L-103.62-4.53Q-101.39-4.53-100.12-3.19Q-98.85-1.86-98.85 0.53L-98.85 0.53Q-98.85 2.29-99.53 3.45Q-100.20 4.62-101.33 5.19Q-102.47 5.75-103.86 5.75L-103.86 5.75Q-106.08 5.75-107.34 4.42Q-108.61 3.08-108.61 0.69L-108.61 0.69ZM-103.69 4.52Q-102.84 4.52-102.42 3.60Q-102.01 2.69-102.01 0.75L-102.01 0.75Q-102.01-1.33-102.40-2.31Q-102.80-3.29-103.74-3.29L-103.74-3.29Q-105.47-3.29-105.47 0.48L-105.47 0.48Q-105.47 2.53-105.05 3.52Q-104.62 4.52-103.69 4.52L-103.69 4.52Z"/><path fill="#ffffff" opacity="1" d="M-89.31 5.74Q-89.95 5.74-90.23 5.46Q-90.52 5.19-90.52 4.66L-90.52 4.66L-90.52 4.27Q-90.94 4.85-91.79 5.30Q-92.64 5.75-93.51 5.75L-93.51 5.75Q-95.24 5.75-95.98 4.90Q-96.71 4.04-96.71 2.02L-96.71 2.02L-96.71-2.90L-97.54-3.13L-97.54-4.26L-94.22-4.49L-94.20-4.49L-93.81-4.25L-93.81 2.09Q-93.81 3.24-93.53 3.69Q-93.24 4.14-92.52 4.14L-92.52 4.14Q-91.53 4.14-90.85 3.47L-90.85 3.47L-90.85-2.90L-91.95-3.17L-91.95-4.26L-88.45-4.49L-88.39-4.49L-87.97-4.25L-87.97 4.34L-87.03 4.34L-87.03 5.47Q-87.63 5.60-88.14 5.67Q-88.64 5.74-89.31 5.74L-89.31 5.74Z"/><path fill="#ffffff" opacity="1" d="M-85.88 5.56L-85.88 4.39L-84.80 4.23L-84.80-2.42L-85.85-2.74L-85.85-4.12L-82.91-4.51L-82.85-4.51L-82.36-4.14L-82.36-3.71L-82.41-2.25L-82.36-2.25Q-82.23-2.65-81.79-3.19Q-81.35-3.73-80.67-4.13Q-79.99-4.53-79.19-4.53L-79.19-4.53Q-78.73-4.53-78.48-4.40L-78.48-4.40L-78.48-1.33Q-78.77-1.54-79.09-1.66Q-79.42-1.79-79.93-1.79L-79.93-1.79Q-80.57-1.79-81.08-1.62Q-81.60-1.45-81.90-1.24L-81.90-1.24L-81.90 4.23L-79.95 4.41L-79.95 5.56L-85.88 5.56Z"/><path fill="#ffffff" opacity="1" d=""/><path fill="#ffffff" opacity="1" d="M-71.99 4.22L-71.99-6.10L-73.37-6.35L-73.37-7.59L-63.68-7.59L-63.45-4.46L-64.85-4.46L-65.47-6.25L-68.96-6.42L-68.96-1.82L-66.80-1.87L-66.48-3.33L-65.26-3.33L-65.26 1.12L-66.48 1.12L-66.78-0.42L-68.96-0.48L-68.96 4.34L-65.08 4.09L-64.00 1.81L-62.50 2.23L-62.92 5.56L-73.35 5.56L-73.35 4.39L-71.99 4.22Z"/><path fill="#ffffff" opacity="1" d="M-62.66-6.35L-62.66-7.59L-56.87-7.59L-56.87-6.35L-58.32-6.12L-55.86 1.58L-55.42 3.14L-55.06 1.56L-52.71-6.10L-54.09-6.35L-54.09-7.59L-49.60-7.59L-49.60-6.35L-50.75-6.10L-54.75 5.68L-57.21 5.68L-61.61-6.10L-62.66-6.35Z"/><path fill="#ffffff" opacity="1" d=""/><path fill="#ffffff" opacity="1" d="M-39.47 5.75Q-42.44 5.75-43.88 3.96Q-45.31 2.16-45.31-0.99L-45.31-0.99Q-45.31-3.02-44.56-4.56Q-43.81-6.09-42.44-6.92Q-41.08-7.75-39.26-7.75L-39.26-7.75Q-36.21-7.75-34.77-6.06Q-33.33-4.37-33.33-1.24L-33.33-1.24Q-33.33 0.83-34.09 2.42Q-34.85 4.00-36.24 4.88Q-37.63 5.75-39.47 5.75L-39.47 5.75ZM-39.31-6.58Q-40.59-6.58-41.29-5.18Q-41.98-3.79-41.98-1.01L-41.98-1.01Q-41.98 1.83-41.29 3.20Q-40.60 4.57-39.33 4.57L-39.33 4.57Q-38.07 4.57-37.37 3.07Q-36.67 1.58-36.67-1.22L-36.67-1.22Q-36.67-4.05-37.35-5.32Q-38.02-6.58-39.31-6.58L-39.31-6.58Z"/><path fill="#ffffff" opacity="1" d="M-24.13 5.74Q-24.76 5.74-25.05 5.46Q-25.33 5.19-25.33 4.66L-25.33 4.66L-25.33 4.27Q-25.75 4.85-26.60 5.30Q-27.45 5.75-28.32 5.75L-28.32 5.75Q-30.05 5.75-30.79 4.90Q-31.52 4.04-31.52 2.02L-31.52 2.02L-31.52-2.90L-32.36-3.13L-32.36-4.26L-29.03-4.49L-29.01-4.49L-28.62-4.25L-28.62 2.09Q-28.62 3.24-28.34 3.69Q-28.05 4.14-27.33 4.14L-27.33 4.14Q-26.34 4.14-25.67 3.47L-25.67 3.47L-25.67-2.90L-26.76-3.17L-26.76-4.26L-23.26-4.49L-23.20-4.49L-22.78-4.25L-22.78 4.34L-21.84 4.34L-21.84 5.47Q-22.44 5.60-22.95 5.67Q-23.45 5.74-24.13 5.74L-24.13 5.74Z"/><path fill="#ffffff" opacity="1" d="M-20.69 5.56L-20.69 4.39L-19.61 4.23L-19.61-2.42L-20.66-2.74L-20.66-4.12L-17.72-4.51L-17.66-4.51L-17.17-4.14L-17.17-3.71L-17.22-2.25L-17.17-2.25Q-17.05-2.65-16.60-3.19Q-16.16-3.73-15.48-4.13Q-14.80-4.53-14.00-4.53L-14.00-4.53Q-13.54-4.53-13.29-4.40L-13.29-4.40L-13.29-1.33Q-13.58-1.54-13.90-1.66Q-14.23-1.79-14.74-1.79L-14.74-1.79Q-15.38-1.79-15.89-1.62Q-16.41-1.45-16.71-1.24L-16.71-1.24L-16.71 4.23L-14.76 4.41L-14.76 5.56L-20.69 5.56Z"/><path fill="#ffffff" opacity="1" d=""/><path fill="#ffffff" opacity="1" d="M-8.16 5.56L-8.16 4.39L-6.80 4.22L-6.80-6.12L-8.09-6.37L-8.09-7.59L-5.36-7.59Q-5.03-7.59-4.63-7.61Q-4.23-7.63-4.02-7.64L-4.02-7.64Q-3.06-7.71-2.39-7.71L-2.39-7.71Q-0.50-7.71 0.62-7.35Q1.73-6.99 2.24-6.22Q2.74-5.45 2.74-4.19L2.74-4.19Q2.74-2.99 2.11-1.94Q1.47-0.90 0.23-0.51L0.23-0.51Q1.04-0.21 1.60 0.61Q2.16 1.44 2.76 2.71L2.76 2.71Q3.12 3.45 3.33 3.82Q3.54 4.18 3.77 4.23L3.77 4.23L4.28 4.39L4.28 5.56L0.92 5.56Q0.65 5.56 0.37 4.99Q0.09 4.43-0.35 3.22L-0.35 3.22Q-0.90 1.75-1.30 0.95Q-1.70 0.14-2.18-0.03L-2.18-0.03L-3.77-0.03L-3.77 4.22L-2.19 4.39L-2.19 5.56L-8.16 5.56ZM-2.41-1.18Q-1.49-1.18-0.97-1.90Q-0.46-2.62-0.46-4.07L-0.46-4.07Q-0.46-5.34-0.96-5.94Q-1.47-6.53-2.66-6.53L-2.66-6.53Q-3.29-6.53-3.77-6.44L-3.77-6.44L-3.77-1.24Q-3.54-1.18-3.01-1.18Q-2.48-1.18-2.41-1.18L-2.41-1.18Z"/><path fill="#ffffff" opacity="1" d="M9.49 5.75Q7.06 5.75 5.89 4.38Q4.73 3.01 4.73 0.64L4.73 0.64Q4.73-0.97 5.33-2.14Q5.93-3.31 7.02-3.92Q8.11-4.53 9.58-4.53L9.58-4.53Q11.43-4.53 12.42-3.59Q13.40-2.65 13.43-0.94L13.43-0.94Q13.43 0.20 13.27 0.89L13.27 0.89L7.73 0.89Q7.82 2.39 8.47 3.18Q9.12 3.97 10.28 3.97L10.28 3.97Q10.94 3.97 11.66 3.75Q12.37 3.52 12.81 3.24L12.81 3.24L13.31 4.32Q12.85 4.83 11.74 5.29Q10.64 5.75 9.49 5.75L9.49 5.75ZM7.72-0.28L10.62-0.28L10.64-1.02Q10.64-2.14 10.34-2.72Q10.04-3.31 9.31-3.31L9.31-3.31Q8.57-3.31 8.16-2.66Q7.75-2.02 7.72-0.28L7.72-0.28Z"/><path fill="#ffffff" opacity="1" d="M16.50 2.69L16.94 4.09Q17.06 4.29 17.51 4.45Q17.97 4.60 18.43 4.60L18.43 4.60Q19.15 4.60 19.53 4.29Q19.91 3.98 19.91 3.49L19.91 3.49Q19.91 2.96 19.42 2.61Q18.92 2.27 17.79 1.77L17.79 1.77L17.12 1.47Q15.97 0.96 15.39 0.22Q14.81-0.51 14.81-1.64L14.81-1.64Q14.81-2.46 15.29-3.10Q15.77-3.75 16.67-4.12Q17.58-4.49 18.80-4.49L18.80-4.49Q19.65-4.49 20.27-4.39Q20.89-4.28 21.52-4.12L21.52-4.12Q21.95-4.00 22.16-3.98L22.16-3.98L22.16-1.57L20.59-1.57L20.12-2.94Q20.04-3.10 19.70-3.23Q19.36-3.36 18.94-3.36L18.94-3.36Q18.27-3.36 17.88-3.07Q17.49-2.78 17.49-2.28L17.49-2.28Q17.49-1.71 17.93-1.39Q18.37-1.06 19.35-0.62L19.35-0.62L19.72-0.46Q21.15 0.14 21.97 0.84Q22.78 1.54 22.78 2.76L22.78 2.76Q22.78 4.07 21.74 4.91Q20.69 5.75 18.66 5.75L18.66 5.75Q17.72 5.75 16.99 5.60Q16.27 5.45 15.40 5.21L15.40 5.21L14.81 5.05L14.81 2.69L16.50 2.69Z"/><path fill="#ffffff" opacity="1" d="M34.05 0.32Q34.05 1.79 33.44 3.03Q32.83 4.27 31.64 5.01Q30.44 5.75 28.76 5.75L28.76 5.75Q28.48 5.75 28.15 5.70Q27.82 5.65 27.65 5.58L27.65 5.58L27.70 7.01L27.70 8.52L29.22 8.75L29.22 9.84L23.79 9.84L23.79 8.75L24.87 8.52L24.87-2.42L23.79-2.74L23.79-4.12L26.96-4.51L26.99-4.51L27.47-4.14L27.47-3.18Q27.88-3.73 28.61-4.13Q29.35-4.53 30.21-4.53L30.21-4.53Q31.91-4.53 32.98-3.33Q34.05-2.14 34.05 0.32L34.05 0.32ZM29.17-2.90Q28.71-2.90 28.30-2.71Q27.90-2.53 27.70-2.26L27.70-2.26L27.70 4.22Q27.82 4.37 28.13 4.48Q28.44 4.59 28.82 4.59L28.82 4.59Q29.81 4.59 30.40 3.63Q30.99 2.68 30.99 0.53L30.99 0.53Q30.99-1.20 30.50-2.05Q30.00-2.90 29.17-2.90L29.17-2.90Z"/><path fill="#ffffff" opacity="1" d="M35.45 0.69Q35.45-1.01 36.13-2.18Q36.80-3.36 37.94-3.94Q39.08-4.53 40.44-4.53L40.44-4.53Q42.67-4.53 43.94-3.19Q45.21-1.86 45.21 0.53L45.21 0.53Q45.21 2.29 44.53 3.45Q43.86 4.62 42.73 5.19Q41.59 5.75 40.20 5.75L40.20 5.75Q37.98 5.75 36.72 4.42Q35.45 3.08 35.45 0.69L35.45 0.69ZM40.37 4.52Q41.22 4.52 41.64 3.60Q42.06 2.69 42.06 0.75L42.06 0.75Q42.06-1.33 41.66-2.31Q41.26-3.29 40.32-3.29L40.32-3.29Q38.59-3.29 38.59 0.48L38.59 0.48Q38.59 2.53 39.01 3.52Q39.44 4.52 40.37 4.52L40.37 4.52Z"/><path fill="#ffffff" opacity="1" d="M47.75 4.23L47.75-2.42L46.71-2.74L46.71-4.12L49.93-4.51L49.98-4.51L50.45-4.14L50.45-3.48L50.43-3.08Q51.05-3.66 52.00-4.07Q52.96-4.48 54.00-4.48L54.00-4.48Q55.06-4.48 55.68-4.10Q56.29-3.71 56.56-2.88Q56.83-2.05 56.83-0.62L56.83-0.62L56.83 4.23L57.83 4.37L57.83 5.56L53.01 5.56L53.01 4.39L53.88 4.23L53.88-0.60Q53.88-1.45 53.76-1.92Q53.65-2.39 53.37-2.60Q53.08-2.81 52.55-2.81L52.55-2.81Q51.74-2.81 50.71-2.05L50.71-2.05L50.71 4.23L51.68 4.39L51.68 5.56L46.78 5.56L46.78 4.39L47.75 4.23Z"/><path fill="#ffffff" opacity="1" d="M60.76 2.69L61.21 4.09Q61.33 4.29 61.78 4.45Q62.23 4.60 62.69 4.60L62.69 4.60Q63.42 4.60 63.80 4.29Q64.18 3.98 64.18 3.49L64.18 3.49Q64.18 2.96 63.68 2.61Q63.19 2.27 62.06 1.77L62.06 1.77L61.38 1.47Q60.23 0.96 59.66 0.22Q59.08-0.51 59.08-1.64L59.08-1.64Q59.08-2.46 59.56-3.10Q60.04-3.75 60.94-4.12Q61.84-4.49 63.07-4.49L63.07-4.49Q63.91-4.49 64.53-4.39Q65.15-4.28 65.79-4.12L65.79-4.12Q66.22-4.00 66.43-3.98L66.43-3.98L66.43-1.57L64.85-1.57L64.39-2.94Q64.30-3.10 63.97-3.23Q63.63-3.36 63.21-3.36L63.21-3.36Q62.53-3.36 62.14-3.07Q61.76-2.78 61.76-2.28L61.76-2.28Q61.76-1.71 62.20-1.39Q62.64-1.06 63.61-0.62L63.61-0.62L63.99-0.46Q65.42 0.14 66.23 0.84Q67.05 1.54 67.05 2.76L67.05 2.76Q67.05 4.07 66.00 4.91Q64.96 5.75 62.92 5.75L62.92 5.75Q61.99 5.75 61.26 5.60Q60.53 5.45 59.67 5.21L59.67 5.21L59.08 5.05L59.08 2.69L60.76 2.69Z"/><path fill="#ffffff" opacity="1" d="M70.50-5.80Q69.81-5.80 69.38-6.21Q68.96-6.62 68.96-7.25L68.96-7.25Q68.96-8.00 69.43-8.48Q69.90-8.95 70.69-8.95L70.69-8.95Q71.49-8.95 71.92-8.55Q72.34-8.14 72.34-7.50L72.34-7.50Q72.34-6.74 71.86-6.27Q71.38-5.80 70.52-5.80L70.52-5.80L70.50-5.80ZM69.42 4.23L69.42-2.42L68.23-2.76L68.23-4.09L71.77-4.51L71.81-4.51L72.36-4.14L72.36 4.23L73.42 4.39L73.42 5.56L68.32 5.56L68.32 4.39L69.42 4.23Z"/><path fill="#ffffff" opacity="1" d="M73.92-7.50L73.92-8.53L77.40-8.95L77.44-8.95L78.00-8.60L78.00-3.43Q78.46-3.91 79.14-4.22Q79.81-4.53 80.57-4.53L80.57-4.53Q82.27-4.53 83.32-3.33Q84.38-2.14 84.38 0.32L84.38 0.32Q84.38 1.86 83.73 3.10Q83.08 4.34 81.88 5.05Q80.68 5.75 79.07 5.75L79.07 5.75Q77.54 5.75 76.52 5.52Q75.49 5.28 75.17 5.08L75.17 5.08L75.17-7.27L73.92-7.50ZM79.47-2.79Q79.03-2.79 78.64-2.60Q78.25-2.40 78.00-2.14L78.00-2.14L78.00 4.27Q78.07 4.45 78.40 4.55Q78.73 4.66 79.15 4.66L79.15 4.66Q80.15 4.66 80.73 3.61Q81.31 2.57 81.31 0.53L81.31 0.53Q81.31-1.18 80.82-1.99Q80.32-2.79 79.47-2.79L79.47-2.79Z"/><path fill="#ffffff" opacity="1" d="M87.86-5.80Q87.17-5.80 86.75-6.21Q86.32-6.62 86.32-7.25L86.32-7.25Q86.32-8.00 86.79-8.48Q87.26-8.95 88.06-8.95L88.06-8.95Q88.85-8.95 89.28-8.55Q89.70-8.14 89.70-7.50L89.70-7.50Q89.70-6.74 89.23-6.27Q88.75-5.80 87.88-5.80L87.88-5.80L87.86-5.80ZM86.78 4.23L86.78-2.42L85.60-2.76L85.60-4.09L89.14-4.51L89.17-4.51L89.72-4.14L89.72 4.23L90.78 4.39L90.78 5.56L85.69 5.56L85.69 4.39L86.78 4.23Z"/><path fill="#ffffff" opacity="1" d="M92.93 4.23L92.93-7.22L91.69-7.45L91.69-8.53L95.23-8.95L95.28-8.95L95.79-8.58L95.79 4.23L96.94 4.39L96.94 5.56L91.79 5.56L91.79 4.39L92.93 4.23Z"/><path fill="#ffffff" opacity="1" d="M100.25-5.80Q99.56-5.80 99.14-6.21Q98.71-6.62 98.71-7.25L98.71-7.25Q98.71-8.00 99.18-8.48Q99.65-8.95 100.45-8.95L100.45-8.95Q101.24-8.95 101.67-8.55Q102.09-8.14 102.09-7.50L102.09-7.50Q102.09-6.74 101.62-6.27Q101.14-5.80 100.27-5.80L100.27-5.80L100.25-5.80ZM99.17 4.23L99.17-2.42L97.99-2.76L97.99-4.09L101.53-4.51L101.56-4.51L102.11-4.14L102.11 4.23L103.17 4.39L103.17 5.56L98.08 5.56L98.08 4.39L99.17 4.23Z"/><path fill="#ffffff" opacity="1" d="M107.39 5.72Q106.22 5.72 105.66 5.18Q105.10 4.64 105.10 3.51L105.10 3.51L105.10-2.79L104.02-2.79L104.02-3.82L104.38-3.96Q104.80-4.10 105.12-4.26L105.12-4.26Q105.47-4.60 105.69-5.15L105.69-5.15Q105.95-5.79 106.27-6.94L106.27-6.94L107.92-6.94L108.02-4.28L110.55-4.28L110.55-2.79L108.06-2.79L108.06 1.90Q108.06 2.87 108.11 3.26Q108.16 3.65 108.32 3.76Q108.47 3.88 108.87 3.88L108.87 3.88Q109.70 3.88 110.45 3.60L110.45 3.60L110.82 4.71Q110.32 5.12 109.35 5.42Q108.38 5.72 107.39 5.72L107.39 5.72Z"/><path fill="#ffffff" opacity="1" d="M113.35 9.97Q112.98 9.97 112.58 9.91Q112.18 9.86 112.01 9.77L112.01 9.77L112.01 7.65Q112.13 7.74 112.54 7.82Q112.94 7.90 113.28 7.90L113.28 7.90Q114.18 7.90 114.71 7.33Q115.24 6.76 115.69 5.56L115.69 5.56L114.66 5.56L111.35-2.94L110.57-3.15L110.57-4.28L115.79-4.28L115.79-3.15L114.55-2.94L116.02 1.77L116.55 3.56L116.98 1.77L118.34-2.95L117.28-3.15L117.28-4.28L121.28-4.28L121.28-3.15L120.43-2.95Q119.69-0.67 118.62 2.41Q117.55 5.49 117.42 5.77L117.42 5.77Q116.89 7.24 116.35 8.14Q115.81 9.03 115.09 9.50Q114.36 9.97 113.35 9.97L113.35 9.97Z"/></g></svg>
